<svg width="77" height="105" viewBox="0 0 77 105" fill="none" xmlns="http://www.w3.org/2000/svg">
<g filter="url(#filter0_d_1_212)">
<path d="M48.0792 1.28965C47.3891 2.0204 45.7537 3.56786 44.4485 4.75711C40.0976 8.68307 39.2124 10.0872 39.0923 13.2968C39.0023 15.9046 39.6325 17.8819 41.2678 20.1314C41.7029 20.7332 42.063 21.1917 42.063 21.1344C42.063 21.0914 41.7929 20.5326 41.4628 19.9022C40.2026 17.495 39.8275 14.572 40.5176 12.4944C41.1628 10.5458 42.108 9.37083 45.3037 6.54815C45.9788 5.96069 46.804 5.14397 47.149 4.75711L47.7942 4.04069L47.7042 7.04964C47.6591 9.04128 47.5541 10.4168 47.3891 11.1332C46.834 13.5547 45.7537 15.4747 43.7883 17.581C42.363 19.1141 41.958 19.9881 42.348 20.7045C42.408 20.8335 42.5131 21.378 42.5731 21.8938L42.6631 22.8395L41.8079 23.3839C38.9123 25.218 36.8719 27.8687 36.0467 30.8777C35.8217 31.68 35.7316 32.4538 35.7316 33.7003C35.7166 36.3511 36.2267 38.5576 37.517 41.3373L38.1922 42.7988L37.9521 43.9451C37.7121 45.1057 37.637 48.5588 37.8471 49.4615C37.9221 49.8197 38.0121 49.8914 38.3872 49.8914H38.8373L38.9423 48.043C39.3324 41.452 41.6129 37.6263 46.969 34.5744C51.0949 32.2245 52.3101 30.9063 55.0557 25.8054C57.2162 21.7505 57.9063 20.6759 59.5716 18.6269L60.5168 17.4663L59.1816 18.0108C57.0211 18.8992 53.9155 19.7875 50.1647 20.5899C46.5639 21.3493 44.9286 21.7935 43.6833 22.3953C43.2932 22.5816 42.9332 22.7392 42.8881 22.7392C42.8431 22.7392 42.8281 22.166 42.8731 21.4496C42.9482 19.9165 42.9632 19.8878 45.2887 17.5666C46.5489 16.3201 47.074 15.661 47.5091 14.8443C48.4693 13.0246 48.5443 12.4944 48.4393 8.98397C48.3343 5.68845 48.5143 3.5392 49.1145 1.14637C49.2645 0.530254 49.3845 0.014431 49.3695 0.000102997C49.3545 -0.014225 48.7694 0.573238 48.0792 1.28965ZM54.9957 23.7565C51.9801 29.058 49.8796 31.3075 45.0636 34.4168C44.1184 35.0329 43.0082 35.8066 42.6031 36.1218C41.1178 37.2968 39.4224 39.6179 38.7773 41.3517C38.6273 41.7672 38.4622 42.0538 38.4172 41.9821C38.1772 41.6239 37.532 38.7009 37.382 37.3397C36.8869 32.8263 38.6423 28.8717 42.333 26.221C44.4485 24.6878 46.3689 23.9857 50.2397 23.3123C51.89 23.0257 54.5156 22.295 55.6408 21.8222C55.8959 21.7219 56.1059 21.6502 56.1359 21.6645C56.1509 21.6789 55.6408 22.6245 54.9957 23.7565Z" fill="#151618"/>
<path d="M21.681 4.86848C22.5758 8.09682 22.8442 12.3295 22.4117 16.2896C21.8749 21.2254 22.3223 22.7176 25.5136 26.7781C26.3786 27.8686 27.3479 29.289 27.6909 29.9203C28.6602 31.7999 29.1822 34.4687 29.1971 37.6827V39.0171L28.8392 38.8736C28.0041 38.5723 26.4979 38.4431 22.71 38.3714C20.5029 38.3283 18.2212 38.2279 17.6396 38.1705C17.0729 38.0988 16.5808 38.0701 16.5659 38.0844C16.5361 38.0988 16.8343 38.3283 17.237 38.601C18.9221 39.7632 20.6222 41.2697 22.5907 43.3502C23.7539 44.5698 25.1408 45.9185 25.6926 46.3346C28.0488 48.1281 30.748 49.1755 34.0139 49.5486C35.3561 49.7064 34.8192 49.2186 32.5525 48.2716C28.9436 46.7507 27.1391 45.5168 24.3653 42.6902C23.3214 41.6284 22.0538 40.4949 21.5617 40.1649L20.6669 39.591H22.4267C27.0496 39.591 29.6594 40.4519 31.8814 42.7045C32.985 43.8093 33.7753 45.1868 34.178 46.6646C34.2973 47.1381 34.4315 47.5542 34.4762 47.5972C34.6254 47.7264 34.5806 45.9042 34.4166 44.8998C34.0736 42.8193 32.3437 40.5236 30.3603 39.5192L29.4953 39.0888V36.7214C29.4953 32.0152 29.0629 30.3938 26.7961 26.7207C23.7986 21.8423 23.3065 19.9197 23.396 13.1617C23.4258 11.0669 23.4706 9.3451 23.4855 9.35946C23.4855 9.3738 23.7986 9.77555 24.1565 10.249C24.5294 10.7225 25.8566 12.143 27.1242 13.4056C30.1962 16.4618 31.3744 18.2266 32.1051 20.881C32.9253 23.7937 32.2542 27.8686 30.3156 31.7999C29.9576 32.5317 29.6892 33.1343 29.7041 33.1343C29.7339 33.1343 29.9875 32.79 30.2857 32.3595C32.627 28.9734 33.8052 25.1568 33.6262 21.5841C33.5218 19.6327 33.1192 18.1118 32.2691 16.4187C31.4042 14.6683 30.405 13.4343 27.5119 10.5504C25.2601 8.29769 23.7092 6.63331 22.0837 4.79675L21.4573 4.07934L21.681 4.86848Z" fill="#151618"/>
<path d="M48.5727 40.0358C45.1472 40.7347 42.8185 43.6444 42.8034 47.2102C42.8034 47.9234 42.7734 47.9805 42.3377 48.1231C41.5565 48.3798 42.1274 48.5082 44.5462 48.608C48.0017 48.7507 50.1201 48.3656 51.923 47.253C52.4188 46.9535 53.6658 45.9979 54.7024 45.1278C56.8058 43.3877 57.8875 42.646 59.6604 41.7474L60.8473 41.1483L59.4049 41.0485C58.6237 41.0057 57.2265 40.8203 56.295 40.6634C55.3635 40.5065 53.8911 40.2497 53.0198 40.1071C51.1868 39.7933 49.8647 39.7648 48.5727 40.0358ZM53.5306 41.8187C54.2667 41.9899 55.4086 42.1753 56.0396 42.2181L57.2114 42.3179L55.5738 43.5731C53.0799 45.4844 51.4272 46.3544 49.3088 46.8679C48.2271 47.1389 43.3894 47.8378 43.2842 47.738C43.149 47.6096 43.5847 46.2831 44.1105 45.2419C45.027 43.4305 46.7548 42.1325 48.9332 41.6048C50.045 41.3337 51.7878 41.4193 53.5306 41.8187Z" fill="#151618"/>
<path d="M15.0565 55.6404C14.876 63.3893 15.2971 66.0107 17.3276 69.9139C18.3955 71.9592 20.1251 74.3501 21.3584 75.4735C21.6592 75.7472 21.8999 76.0065 21.8999 76.0497C21.8999 76.1073 18.1548 76.1217 13.5975 76.0929C9.02522 76.0641 5.12973 76.0929 4.9342 76.1361C4.75371 76.1793 4.51307 76.3809 4.42282 76.5682C4.28746 76.8707 4.3025 76.9715 4.52811 77.2163C4.79884 77.5044 4.96428 77.5044 38.4745 77.5044C61.4113 77.5044 72.2405 77.4612 72.4511 77.3604C72.8421 77.1587 72.8421 76.4098 72.4511 76.2081C72.2555 76.1217 69.1572 76.0641 63.4117 76.0641H54.6732L55.5906 75.0126C58.2077 72.06 59.9073 68.8193 61.0203 64.6856C61.3361 63.5477 61.3662 63.058 61.4113 57.2968L61.4865 51.1466H38.3241H15.1617L15.0565 55.6404Z" fill="#151618"/>
<path d="M8.81415 79.4547C13.8963 81.7458 21.7301 83.6127 29.0377 84.2774C30.3308 84.4047 30.9172 84.5037 30.6916 84.5603C30.3759 84.6451 30.3608 84.6593 30.6164 84.6734C30.7818 84.6876 31.8043 84.7583 32.8719 84.8431C38.375 85.225 50.1633 84.9987 49.8325 84.5037C49.7874 84.433 49.8025 84.4047 49.8927 84.4471C49.9679 84.4896 50.2385 84.4754 50.4791 84.4047C50.9001 84.2916 50.9001 84.2916 50.3137 84.2633C49.9528 84.2491 50.7197 84.0794 52.1932 83.839C56.7792 83.1036 60.5532 82.2125 63.6507 81.1377C65.4249 80.5154 68.8682 79.1011 69.1088 78.8748C69.1839 78.8041 57.4408 78.7475 38.2848 78.7617L7.31055 78.7758L8.81415 79.4547Z" fill="#151618"/>
</g>
<path d="M7.82715 100.451H7.625C7.61914 100.451 7.60156 100.454 7.57227 100.46C7.54883 100.466 7.52246 100.474 7.49316 100.486C7.46387 100.492 7.43457 100.498 7.40527 100.504C7.37598 100.51 7.3584 100.512 7.35254 100.512C7.05371 100.542 6.75195 100.559 6.44727 100.565C6.14258 100.577 5.83789 100.583 5.5332 100.583C5.46875 100.583 5.38672 100.58 5.28711 100.574C5.19336 100.574 5.10254 100.562 5.01465 100.539C4.92676 100.51 4.85059 100.469 4.78613 100.416C4.72168 100.363 4.68945 100.287 4.68945 100.187C4.68945 100.111 4.70703 100.035 4.74219 99.9587C4.77734 99.8826 4.82715 99.8298 4.8916 99.8005C4.9502 99.7947 5.05273 99.7888 5.19922 99.783C5.3457 99.7771 5.49805 99.7712 5.65625 99.7654C5.82031 99.7537 5.97559 99.7449 6.12207 99.739C6.26855 99.7273 6.37109 99.7156 6.42969 99.7039C6.46484 99.7039 6.51172 99.7039 6.57031 99.7039C6.62891 99.698 6.6875 99.6892 6.74609 99.6775C6.81055 99.6599 6.86621 99.6394 6.91309 99.616C6.96582 99.5925 7.00684 99.5603 7.03613 99.5193C7.10645 99.3728 7.1416 99.2175 7.1416 99.0535V98.781V98.0779C7.1416 98.0603 7.14453 98.0193 7.15039 97.9548C7.16211 97.8904 7.1709 97.8201 7.17676 97.7439C7.18848 97.6677 7.2002 97.5945 7.21191 97.5242C7.22363 97.4539 7.22949 97.4099 7.22949 97.3923C7.25879 96.783 7.27637 96.1707 7.28223 95.5554C7.28809 94.9402 7.29102 94.3279 7.29102 93.7185C7.29102 93.4607 7.28809 93.2087 7.28223 92.9626C7.27637 92.7166 7.27344 92.4705 7.27344 92.2244C7.27344 92.1365 7.27344 91.9929 7.27344 91.7937C7.2793 91.5886 7.28223 91.3777 7.28223 91.1609C7.28223 90.9382 7.28223 90.7302 7.28223 90.5369C7.28809 90.3376 7.29102 90.2 7.29102 90.1238C7.26172 90.0066 7.2207 89.9099 7.16797 89.8337C7.12109 89.7517 7.05664 89.6726 6.97461 89.5964C6.94531 89.5906 6.89258 89.5847 6.81641 89.5789C6.74609 89.5671 6.66992 89.5583 6.58789 89.5525C6.51172 89.5408 6.43555 89.532 6.35938 89.5261C6.28906 89.5203 6.23926 89.5173 6.20996 89.5173C6.19824 89.5173 6.16895 89.5232 6.12207 89.5349C6.08105 89.5408 6.03418 89.5496 5.98145 89.5613C5.93457 89.5671 5.8877 89.5759 5.84082 89.5876C5.79395 89.5935 5.76465 89.5964 5.75293 89.5964C5.71777 89.6023 5.64453 89.6052 5.5332 89.6052C5.42773 89.6052 5.31348 89.6052 5.19043 89.6052C5.07324 89.6052 4.96191 89.6052 4.85645 89.6052C4.75098 89.6052 4.6748 89.6023 4.62793 89.5964C4.54004 89.6316 4.44336 89.658 4.33789 89.6755C4.23242 89.6873 4.13281 89.7253 4.03906 89.7898C4.03906 89.8015 4.02148 89.825 3.98633 89.8601C3.95117 89.8953 3.92773 89.9187 3.91602 89.9304C3.86914 89.9832 3.80469 90.0564 3.72266 90.1501C3.64648 90.238 3.57031 90.3289 3.49414 90.4226C3.41797 90.5164 3.34766 90.5984 3.2832 90.6687C3.22461 90.739 3.19238 90.7771 3.18652 90.783C3.14551 90.8357 3.10449 90.9089 3.06348 91.0027C3.02832 91.0906 2.9873 91.1785 2.94043 91.2664C2.89355 91.3484 2.83789 91.4216 2.77344 91.4861C2.70898 91.5505 2.62988 91.5828 2.53613 91.5828C2.46582 91.5828 2.41602 91.5652 2.38672 91.53C2.35742 91.489 2.33398 91.4421 2.31641 91.3894C2.31641 91.3718 2.31641 91.3455 2.31641 91.3103C2.31641 91.2693 2.31348 91.2283 2.30762 91.1873C2.30762 91.1404 2.30762 91.0964 2.30762 91.0554C2.30762 91.0085 2.30762 90.9763 2.30762 90.9587C2.30762 90.9412 2.30762 90.9148 2.30762 90.8796C2.30762 90.8386 2.30762 90.8005 2.30762 90.7654C2.31348 90.7244 2.31641 90.6892 2.31641 90.6599C2.31641 90.6248 2.31641 90.6042 2.31641 90.5984C2.32227 90.5808 2.33398 90.5369 2.35156 90.4666C2.375 90.3904 2.39844 90.3113 2.42188 90.2292C2.44531 90.1472 2.46582 90.071 2.4834 90.0007C2.50684 89.9304 2.52441 89.8865 2.53613 89.8689C2.53613 89.8513 2.54199 89.8132 2.55371 89.7546C2.56543 89.696 2.57715 89.6345 2.58887 89.5701C2.60645 89.4998 2.62109 89.4382 2.63281 89.3855C2.64453 89.3269 2.65332 89.2888 2.65918 89.2712C2.65918 89.2595 2.66797 89.2273 2.68555 89.1746C2.70898 89.1218 2.73242 89.0632 2.75586 88.9988C2.7793 88.9343 2.7998 88.8757 2.81738 88.823C2.84082 88.7703 2.85254 88.738 2.85254 88.7263C2.87012 88.6794 2.8877 88.6267 2.90527 88.5681C2.92871 88.5037 2.95508 88.4451 2.98438 88.3923C3.01953 88.3396 3.06055 88.2957 3.10742 88.2605C3.1543 88.2195 3.20996 88.199 3.27441 88.199C3.37402 88.199 3.45312 88.2253 3.51172 88.2781C3.57617 88.3308 3.63477 88.3894 3.6875 88.4539C3.74023 88.5183 3.79297 88.5857 3.8457 88.656C3.89844 88.7205 3.96289 88.7644 4.03906 88.7878C4.16211 88.7878 4.29102 88.7849 4.42578 88.7791C4.56055 88.7732 4.69531 88.7703 4.83008 88.7703C5.08203 88.7703 5.33105 88.7761 5.57715 88.7878C5.82324 88.7996 6.06641 88.8259 6.30664 88.8669C6.30664 88.8669 6.31836 88.8728 6.3418 88.8845C6.36523 88.8904 6.38867 88.8992 6.41211 88.9109C6.44141 88.9167 6.46777 88.9226 6.49121 88.9285C6.52051 88.9343 6.53809 88.9373 6.54395 88.9373H6.8252C6.97754 88.9373 7.11523 88.9226 7.23828 88.8933C7.36719 88.864 7.51074 88.8494 7.66895 88.8494C7.69238 88.8494 7.72461 88.8494 7.76562 88.8494C7.8125 88.8494 7.85938 88.8494 7.90625 88.8494C7.95312 88.8494 7.99414 88.8523 8.0293 88.8582C8.06445 88.8582 8.08789 88.8611 8.09961 88.8669C8.12305 88.8669 8.16992 88.8728 8.24023 88.8845C8.31641 88.8904 8.39844 88.8992 8.48633 88.9109C8.57422 88.9167 8.65332 88.9226 8.72363 88.9285C8.7998 88.9343 8.84961 88.9373 8.87305 88.9373C8.91992 88.9197 8.97559 88.905 9.04004 88.8933C9.11035 88.8816 9.20117 88.8728 9.3125 88.8669C9.42969 88.8611 9.57617 88.8582 9.75195 88.8582C9.92773 88.8523 10.1475 88.8494 10.4111 88.8494L12.002 88.8669C12.1016 88.8669 12.2041 88.8347 12.3096 88.7703C12.415 88.7 12.5205 88.6208 12.626 88.533C12.7314 88.4392 12.834 88.3484 12.9336 88.2605C13.0391 88.1726 13.1416 88.1111 13.2412 88.0759H13.3467C13.5166 88.0759 13.6367 88.1667 13.707 88.3484C13.7129 88.4187 13.7246 88.5505 13.7422 88.7439C13.7598 88.9314 13.7773 89.1306 13.7949 89.3416C13.8184 89.5525 13.8418 89.7517 13.8652 89.9392C13.8887 90.1267 13.9062 90.2585 13.918 90.3347C13.918 90.3464 13.9209 90.3669 13.9268 90.3962C13.9326 90.4255 13.9385 90.4607 13.9443 90.5017C13.9561 90.5369 13.9648 90.572 13.9707 90.6072C13.9766 90.6365 13.9795 90.6541 13.9795 90.6599V90.7917C13.9795 90.9441 13.9736 91.0818 13.9619 91.2048C13.9502 91.3279 13.9355 91.4685 13.918 91.6267C13.8945 91.6736 13.8652 91.7058 13.8301 91.7234C13.8008 91.7351 13.7715 91.741 13.7422 91.741C13.7246 91.741 13.707 91.7322 13.6895 91.7146C13.6719 91.7087 13.6572 91.7 13.6455 91.6882C13.5576 91.6472 13.4814 91.5886 13.417 91.5125C13.3584 91.4363 13.3057 91.3542 13.2588 91.2664C13.2178 91.1785 13.1797 91.0876 13.1445 90.9939C13.1094 90.8943 13.0742 90.8035 13.0391 90.7214C12.9395 90.4695 12.7754 90.2673 12.5469 90.115C12.3242 89.9626 12.0928 89.8337 11.8525 89.7283C11.7002 89.6638 11.5508 89.6316 11.4043 89.6316C11.2578 89.6316 11.0996 89.6199 10.9297 89.5964C10.918 89.5964 10.874 89.5847 10.7979 89.5613C10.7275 89.532 10.6807 89.5173 10.6572 89.5173H10.2617H9.81348C9.7666 89.5173 9.69922 89.5291 9.61133 89.5525C9.52344 89.5701 9.47656 89.5847 9.4707 89.5964C9.45312 89.6199 9.43262 89.6433 9.40918 89.6667C9.36816 89.7195 9.3418 89.7605 9.33008 89.7898C9.30664 89.8308 9.28027 89.8865 9.25098 89.9568C9.22168 90.0212 9.20703 90.0564 9.20703 90.0623C9.20117 90.0798 9.19531 90.1121 9.18945 90.1589C9.18359 90.2 9.17773 90.2439 9.17188 90.2908C9.17188 90.3376 9.16895 90.3845 9.16309 90.4314C9.15723 90.4724 9.15137 90.5017 9.14551 90.5193C9.14551 90.613 9.14844 90.7742 9.1543 91.0027C9.16016 91.2312 9.16309 91.4773 9.16309 91.741C9.16309 92.0046 9.16016 92.2537 9.1543 92.488C9.14844 92.7166 9.14551 92.8718 9.14551 92.9539C9.14551 93.2527 9.12207 93.5457 9.0752 93.8328C9.03418 94.114 9.01367 94.4041 9.01367 94.7029C9.01367 95.0251 9.02246 95.3474 9.04004 95.6697C9.06348 95.9861 9.0752 96.3113 9.0752 96.6453C9.0752 97.0496 9.06348 97.4568 9.04004 97.8669C9.02246 98.2771 9.01367 98.6873 9.01367 99.0974C9.01367 99.2205 9.04004 99.3171 9.09277 99.3875C9.15137 99.4578 9.22461 99.5105 9.3125 99.5457C9.40039 99.5808 9.49707 99.6042 9.60254 99.616C9.71387 99.6277 9.81934 99.6365 9.91895 99.6423C9.96582 99.6482 10.0391 99.6541 10.1387 99.6599C10.2441 99.6658 10.3525 99.6716 10.4639 99.6775C10.5811 99.6833 10.6895 99.6892 10.7891 99.6951C10.8887 99.7009 10.959 99.7039 11 99.7039C11.1113 99.7449 11.1934 99.8093 11.2461 99.8972C11.3047 99.9851 11.334 100.082 11.334 100.187C11.334 100.322 11.2959 100.427 11.2197 100.504C11.1436 100.574 11.0469 100.647 10.9297 100.723H10.9121C10.6953 100.723 10.4932 100.706 10.3057 100.671C10.124 100.641 9.93066 100.612 9.72559 100.583C9.09863 100.495 8.46582 100.451 7.82715 100.451ZM14.6738 100.556C14.6738 100.533 14.6562 100.501 14.6211 100.46C14.5918 100.413 14.5742 100.375 14.5684 100.345V100.31V100.302C14.5801 100.278 14.6064 100.243 14.6475 100.196C14.6885 100.149 14.7324 100.102 14.7793 100.055C14.832 100.003 14.8789 99.9558 14.9199 99.9148C14.9668 99.8738 14.999 99.8445 15.0166 99.8269C15.0283 99.8152 15.0664 99.8035 15.1309 99.7917C15.2012 99.7742 15.251 99.7654 15.2803 99.7654H15.9043C15.9219 99.7654 15.9453 99.7625 15.9746 99.7566C16.0098 99.7449 16.042 99.7361 16.0713 99.7302C16.1064 99.7185 16.1357 99.7068 16.1592 99.6951C16.1885 99.6833 16.2031 99.6775 16.2031 99.6775C16.2852 99.6365 16.332 99.572 16.3438 99.4841C16.3613 99.3904 16.3701 99.3025 16.3701 99.2205V99.0798C16.3701 98.8748 16.3643 98.6814 16.3525 98.4998C16.3467 98.3123 16.3438 98.116 16.3438 97.9109V97.8494C16.3438 97.8318 16.3467 97.7996 16.3525 97.7527C16.3584 97.7058 16.3643 97.656 16.3701 97.6033C16.3818 97.5447 16.3936 97.4919 16.4053 97.4451C16.417 97.3982 16.4258 97.366 16.4316 97.3484V93.5164C16.4316 93.3992 16.4111 93.3054 16.3701 93.2351C16.3291 93.1648 16.2764 93.1121 16.2119 93.0769C16.1475 93.0359 16.0713 93.0095 15.9834 92.9978C15.9014 92.9861 15.8135 92.9802 15.7197 92.9802H15.3594C15.1953 92.9802 15.0576 92.9597 14.9463 92.9187C14.835 92.8777 14.7793 92.7781 14.7793 92.6199C14.7793 92.5671 14.7793 92.5203 14.7793 92.4792C14.7852 92.4382 14.7998 92.3826 14.8232 92.3123C15.1045 92.324 15.3799 92.3152 15.6494 92.2859C15.9189 92.2566 16.1914 92.2419 16.4668 92.2419H16.6953C16.7188 92.2478 16.7656 92.2537 16.8359 92.2595C16.9121 92.2654 16.9883 92.2712 17.0645 92.2771C17.1465 92.283 17.2227 92.2888 17.293 92.2947C17.3633 92.3005 17.4131 92.3064 17.4424 92.3123H21.5732C21.749 92.3123 21.875 92.3591 21.9512 92.4529C22.0273 92.5408 22.083 92.6521 22.1182 92.7869V93.2878V93.8064C22.1182 93.8416 22.1123 93.906 22.1006 93.9998C22.0889 94.0876 22.0742 94.1843 22.0566 94.2898C22.0449 94.3894 22.0303 94.489 22.0127 94.5886C22.001 94.6824 21.9922 94.7498 21.9863 94.7908C21.9746 94.8083 21.9541 94.8347 21.9248 94.8699C21.8955 94.8992 21.875 94.9138 21.8633 94.9138C21.8633 94.9255 21.8574 94.9314 21.8457 94.9314H21.8369H21.8105C21.793 94.9314 21.7842 94.9255 21.7842 94.9138C21.6846 94.8435 21.6084 94.7644 21.5557 94.6765C21.5029 94.5828 21.459 94.4861 21.4238 94.3865C21.3887 94.2869 21.3564 94.1873 21.3271 94.0876C21.2979 93.988 21.2539 93.8943 21.1953 93.8064C21.1836 93.783 21.1455 93.7449 21.0811 93.6921C21.0225 93.6335 20.9902 93.6013 20.9844 93.5955C20.9727 93.5837 20.9463 93.5515 20.9053 93.4988C20.8701 93.446 20.8291 93.3904 20.7822 93.3318C20.7412 93.2673 20.7002 93.2087 20.6592 93.156C20.624 93.1033 20.6006 93.071 20.5889 93.0593C20.5654 93.0066 20.5391 92.9802 20.5098 92.9802C20.5039 92.9802 20.4834 92.9773 20.4482 92.9714C20.4189 92.9656 20.3838 92.9597 20.3428 92.9539C20.3076 92.9421 20.2725 92.9333 20.2373 92.9275C20.208 92.9216 20.1934 92.9158 20.1934 92.9099C20.1758 92.9099 20.1436 92.9041 20.0967 92.8923C20.0498 92.8806 19.9971 92.8689 19.9385 92.8572C19.8857 92.8455 19.8359 92.8337 19.7891 92.822C19.7422 92.8044 19.7129 92.7927 19.7012 92.7869H19.6572C19.6338 92.7869 19.6016 92.7957 19.5605 92.8132C19.5195 92.825 19.4902 92.8308 19.4727 92.8308H19.4463C19.4287 92.825 19.3789 92.8191 19.2969 92.8132C19.2207 92.8074 19.1357 92.8044 19.042 92.8044C18.9482 92.7986 18.8604 92.7957 18.7783 92.7957C18.7021 92.7898 18.6553 92.7869 18.6377 92.7869H18.6113C18.5059 92.7869 18.418 92.8074 18.3477 92.8484C18.2773 92.8894 18.2188 92.9421 18.1719 93.0066C18.1309 93.071 18.0928 93.1443 18.0576 93.2263C18.0283 93.3025 17.999 93.3787 17.9697 93.4548C17.9639 93.5193 17.9521 93.6248 17.9346 93.7712C17.9229 93.9177 17.9082 94.073 17.8906 94.2371C17.8789 94.4011 17.8672 94.5564 17.8555 94.7029C17.8438 94.8494 17.8379 94.9519 17.8379 95.0105V95.0808V95.1248C17.8379 95.1541 17.8408 95.2039 17.8467 95.2742C17.8525 95.3445 17.8584 95.4207 17.8643 95.5027C17.8701 95.5789 17.876 95.655 17.8818 95.7312C17.8936 95.8015 17.9023 95.8484 17.9082 95.8718C17.9492 95.9246 17.9961 95.9773 18.0488 96.03C18.1074 96.0828 18.1689 96.1179 18.2334 96.1355H18.7168C18.916 96.1355 19.0889 96.1326 19.2354 96.1267C19.3877 96.1208 19.5693 96.1033 19.7803 96.074C19.7861 96.0623 19.7949 96.0417 19.8066 96.0125C19.8184 95.9832 19.833 95.9539 19.8506 95.9246C19.8682 95.8953 19.8828 95.8689 19.8945 95.8455C19.9062 95.822 19.915 95.8074 19.9209 95.8015C19.9443 95.7605 19.9736 95.7019 20.0088 95.6257C20.0439 95.5437 20.0791 95.4646 20.1143 95.3884C20.1494 95.3064 20.1787 95.2361 20.2021 95.1775C20.2314 95.1189 20.249 95.0867 20.2549 95.0808C20.2666 95.0574 20.2783 95.0076 20.29 94.9314C20.3018 94.8494 20.3135 94.8025 20.3252 94.7908C20.3721 94.738 20.4336 94.7029 20.5098 94.6853C20.5859 94.6677 20.6621 94.6589 20.7383 94.6589C20.8203 94.6589 20.8701 94.6912 20.8877 94.7556C20.9111 94.8142 20.9229 94.8816 20.9229 94.9578V95.1775V95.283C20.9229 95.3357 20.917 95.3884 20.9053 95.4412C20.8936 95.488 20.873 95.5349 20.8438 95.5818C20.8379 95.6345 20.832 95.7224 20.8262 95.8455C20.8203 95.9685 20.8145 96.0974 20.8086 96.2322C20.8027 96.3669 20.7969 96.4958 20.791 96.6189C20.7852 96.7361 20.7822 96.8181 20.7822 96.865V97.0935V97.6208C20.7764 97.6326 20.7705 97.6589 20.7646 97.7C20.7588 97.741 20.7529 97.7878 20.7471 97.8406C20.7471 97.8875 20.7441 97.9343 20.7383 97.9812C20.7324 98.0281 20.7266 98.0603 20.7207 98.0779C20.6562 98.1248 20.5977 98.1599 20.5449 98.1833C20.498 98.2068 20.4395 98.2185 20.3691 98.2185C20.3223 98.2185 20.2783 98.2009 20.2373 98.1658C20.1963 98.1248 20.1582 98.075 20.123 98.0164C20.0879 97.9578 20.0586 97.8992 20.0352 97.8406C20.0117 97.7761 19.9971 97.7175 19.9912 97.6648C19.9854 97.6472 19.9766 97.6091 19.9648 97.5505C19.959 97.4861 19.9531 97.4187 19.9473 97.3484C19.9414 97.2722 19.9355 97.2019 19.9297 97.1375C19.9238 97.073 19.9209 97.0261 19.9209 96.9968C19.9033 96.9734 19.8711 96.9529 19.8242 96.9353C19.7832 96.9119 19.7422 96.8884 19.7012 96.865C19.666 96.8533 19.6104 96.8386 19.5342 96.821C19.458 96.8035 19.376 96.7888 19.2881 96.7771C19.2061 96.7595 19.127 96.7478 19.0508 96.7419C18.9805 96.7302 18.9336 96.7244 18.9102 96.7244C18.8926 96.7244 18.8604 96.7244 18.8135 96.7244C18.7725 96.7185 18.7227 96.7156 18.6641 96.7156C18.6113 96.7156 18.5586 96.7156 18.5059 96.7156C18.4531 96.7097 18.4121 96.7068 18.3828 96.7068C18.3652 96.7068 18.3359 96.7097 18.2949 96.7156C18.2598 96.7156 18.2217 96.7156 18.1807 96.7156C18.1455 96.7156 18.1133 96.7185 18.084 96.7244C18.0547 96.7244 18.0371 96.7244 18.0312 96.7244L17.9082 96.865V97.1638C17.9082 97.5095 17.8965 97.8435 17.873 98.1658C17.8496 98.4822 17.8379 98.8132 17.8379 99.1589C17.8379 99.3347 17.8525 99.4636 17.8818 99.5457C17.9111 99.6277 17.958 99.6863 18.0225 99.7214C18.0869 99.7566 18.1689 99.783 18.2686 99.8005C18.3682 99.8181 18.4912 99.8474 18.6377 99.8884C18.6494 99.8884 18.6699 99.8972 18.6992 99.9148C18.7285 99.9324 18.749 99.95 18.7607 99.9675H19.4463H20.0967C20.1084 99.9675 20.1348 99.9646 20.1758 99.9587C20.2168 99.947 20.2607 99.9382 20.3076 99.9324C20.3545 99.9207 20.3955 99.9119 20.4307 99.906C20.4717 99.8943 20.498 99.8884 20.5098 99.8884H20.9316H21.0986C21.1104 99.8884 21.1309 99.8796 21.1602 99.8621C21.1895 99.8386 21.2188 99.8152 21.248 99.7917C21.2832 99.7625 21.3125 99.7361 21.3359 99.7126C21.3594 99.6892 21.374 99.6775 21.3799 99.6775C21.4209 99.6599 21.4531 99.6511 21.4766 99.6511C21.5059 99.6453 21.5293 99.6423 21.5469 99.6423C21.5645 99.6365 21.582 99.6277 21.5996 99.616C21.6172 99.5984 21.6348 99.572 21.6523 99.5369C21.7168 99.4431 21.7637 99.3464 21.793 99.2468C21.8223 99.1472 21.8604 99.0476 21.9072 98.948C21.9307 98.9304 21.96 98.8953 21.9951 98.8425C22.0303 98.7839 22.0508 98.7458 22.0566 98.7283C22.0625 98.7283 22.0801 98.7195 22.1094 98.7019C22.1387 98.6785 22.168 98.655 22.1973 98.6316C22.2266 98.6023 22.2529 98.5759 22.2764 98.5525C22.2998 98.5232 22.3145 98.5027 22.3203 98.491C22.3262 98.4734 22.3379 98.45 22.3555 98.4207C22.3789 98.3855 22.4023 98.3503 22.4258 98.3152C22.4492 98.2742 22.4697 98.239 22.4873 98.2097C22.5107 98.1746 22.5254 98.1511 22.5312 98.1394C22.5312 98.1335 22.54 98.1218 22.5576 98.1042C22.5693 98.0984 22.5811 98.0896 22.5928 98.0779C22.5928 98.0662 22.5957 98.0603 22.6016 98.0603H22.6191C22.707 98.0603 22.7598 98.0955 22.7773 98.1658C22.7949 98.2302 22.8037 98.2976 22.8037 98.3679V98.5525C22.8037 98.5818 22.8066 98.6521 22.8125 98.7634C22.8184 98.8748 22.8213 98.9949 22.8213 99.1238C22.8271 99.2468 22.833 99.364 22.8389 99.4753C22.8447 99.5867 22.8477 99.6541 22.8477 99.6775V99.7039C22.8477 99.78 22.833 99.8679 22.8037 99.9675C22.7744 100.061 22.7334 100.152 22.6807 100.24C22.6279 100.328 22.5635 100.401 22.4873 100.46C22.417 100.518 22.3408 100.551 22.2588 100.556C22.2178 100.551 22.1416 100.545 22.0303 100.539C21.9248 100.533 21.8105 100.527 21.6875 100.521C21.5645 100.515 21.4473 100.51 21.3359 100.504C21.2246 100.498 21.1455 100.489 21.0986 100.477H20.9316H20.7822C20.7529 100.489 20.6855 100.501 20.5801 100.512C20.4746 100.518 20.3604 100.524 20.2373 100.53C20.1201 100.536 20.0059 100.542 19.8945 100.548C19.7891 100.553 19.7246 100.556 19.7012 100.556H16.3701C16.3525 100.562 16.3232 100.568 16.2822 100.574C16.2471 100.58 16.2061 100.583 16.1592 100.583C16.1182 100.589 16.0771 100.592 16.0361 100.592C15.9951 100.597 15.9658 100.6 15.9482 100.6C15.9482 100.612 15.9277 100.618 15.8867 100.618C15.8457 100.618 15.8076 100.615 15.7725 100.609C15.7373 100.603 15.7139 100.6 15.7021 100.6C15.6787 100.618 15.6318 100.638 15.5615 100.662C15.4912 100.685 15.4414 100.697 15.4121 100.697C15.3828 100.697 15.333 100.691 15.2627 100.679C15.1982 100.668 15.1279 100.653 15.0518 100.635C14.9756 100.624 14.9023 100.609 14.832 100.592C14.7617 100.58 14.709 100.568 14.6738 100.556ZM26.293 97.0759C26.293 97.158 26.3311 97.2166 26.4072 97.2517C26.4834 97.2869 26.5537 97.3044 26.6182 97.3044H27.084C27.1484 97.3044 27.2129 97.3074 27.2773 97.3132C27.3418 97.3191 27.4062 97.322 27.4707 97.322C27.623 97.322 27.7549 97.2986 27.8662 97.2517C27.9775 97.199 28.0332 97.0847 28.0332 96.9089V96.7595C27.9805 96.49 27.9014 96.2234 27.7959 95.9597C27.6904 95.6902 27.5908 95.4294 27.4971 95.1775C27.4854 95.1365 27.4678 95.0925 27.4443 95.0457C27.4268 94.9929 27.4033 94.946 27.374 94.905C27.3447 94.8582 27.3125 94.8201 27.2773 94.7908C27.2422 94.7615 27.2041 94.7468 27.1631 94.7468C27.0869 94.7468 27.0254 94.7791 26.9785 94.8435C26.9375 94.908 26.9023 94.9841 26.873 95.072C26.8496 95.1599 26.8291 95.2507 26.8115 95.3445C26.7939 95.4324 26.7734 95.5027 26.75 95.5554C26.7324 95.6082 26.7002 95.7019 26.6533 95.8367C26.6123 95.9714 26.5684 96.115 26.5215 96.2673C26.4746 96.4138 26.4277 96.5544 26.3809 96.6892C26.3398 96.824 26.3105 96.9177 26.293 96.9705V97.0759ZM24.2451 100.512H24.2012C24.1895 100.512 24.1602 100.518 24.1133 100.53C24.0664 100.536 24.0137 100.545 23.9551 100.556C23.8965 100.562 23.8408 100.568 23.7881 100.574C23.7412 100.58 23.7119 100.583 23.7002 100.583H23.6475C23.6123 100.583 23.583 100.568 23.5596 100.539C23.5361 100.51 23.5186 100.477 23.5068 100.442C23.4951 100.401 23.4893 100.363 23.4893 100.328C23.4834 100.287 23.4805 100.26 23.4805 100.249V100.222C23.4805 100.117 23.5156 100.047 23.5859 100.011C23.6621 99.9763 23.7354 99.9441 23.8057 99.9148C23.8174 99.9148 23.8467 99.906 23.8936 99.8884C23.9404 99.865 23.9902 99.8416 24.043 99.8181C24.1016 99.7947 24.1543 99.7742 24.2012 99.7566C24.248 99.7332 24.2773 99.7156 24.2891 99.7039C24.2949 99.698 24.3125 99.6833 24.3418 99.6599C24.3711 99.6306 24.4033 99.5984 24.4385 99.5632C24.4736 99.5281 24.5059 99.4929 24.5352 99.4578C24.5703 99.4226 24.5996 99.3933 24.623 99.3699C24.6289 99.3582 24.6377 99.3435 24.6494 99.3259C24.6729 99.2908 24.6846 99.2644 24.6846 99.2468C24.6846 99.2351 24.6904 99.2 24.7021 99.1414C24.7197 99.0828 24.7344 99.0476 24.7461 99.0359C24.9043 98.7195 25.0625 98.4001 25.2207 98.0779C25.3789 97.7498 25.5283 97.4216 25.6689 97.0935C25.6865 97.0759 25.71 97.0261 25.7393 96.9441C25.7744 96.8562 25.7979 96.7947 25.8096 96.7595C25.8154 96.7478 25.8301 96.7126 25.8535 96.6541C25.877 96.5896 25.9004 96.5251 25.9238 96.4607C25.9473 96.3904 25.9678 96.3259 25.9854 96.2673C26.0088 96.2087 26.0205 96.1736 26.0205 96.1619C26.0264 96.1443 26.0439 96.1033 26.0732 96.0388C26.1084 95.9744 26.1436 95.9041 26.1787 95.8279C26.2197 95.7517 26.2549 95.6785 26.2842 95.6082C26.3193 95.5378 26.3428 95.4939 26.3545 95.4763C26.4014 95.3708 26.4453 95.2771 26.4863 95.1951C26.5332 95.1072 26.5771 95.0046 26.6182 94.8875C26.6416 94.8406 26.6709 94.7878 26.7061 94.7292C26.7471 94.6707 26.7852 94.6091 26.8203 94.5447C26.8555 94.4744 26.8848 94.407 26.9082 94.3425C26.9375 94.2781 26.9521 94.2166 26.9521 94.158V94.0349C26.9521 94.0115 26.9434 93.9734 26.9258 93.9207C26.9141 93.8621 26.9082 93.8298 26.9082 93.824C26.9082 93.783 26.9316 93.7302 26.9785 93.6658C27.0254 93.6013 27.0605 93.5603 27.084 93.5427C27.0957 93.5369 27.1221 93.5251 27.1631 93.5076C27.21 93.49 27.2568 93.4695 27.3037 93.446C27.3506 93.4226 27.3916 93.4021 27.4268 93.3845C27.4678 93.3669 27.4912 93.3552 27.4971 93.3494C27.5088 93.3376 27.5322 93.3142 27.5674 93.2791C27.6025 93.2439 27.6406 93.2058 27.6816 93.1648C27.7285 93.1179 27.7695 93.074 27.8047 93.033C27.8457 92.9861 27.875 92.9539 27.8926 92.9363C27.8984 92.9304 27.9102 92.9128 27.9277 92.8835C27.9453 92.8484 27.9658 92.8162 27.9893 92.7869C28.0127 92.7517 28.0391 92.7224 28.0684 92.699C28.0977 92.6697 28.1299 92.658 28.165 92.6638C28.2236 92.6814 28.2734 92.7341 28.3145 92.822C28.3613 92.9099 28.3994 93.0066 28.4287 93.1121C28.4639 93.2117 28.4932 93.3113 28.5166 93.4109C28.54 93.5046 28.5605 93.5691 28.5781 93.6042C28.584 93.6335 28.5928 93.6746 28.6045 93.7273C28.6221 93.78 28.6367 93.8328 28.6484 93.8855C28.666 93.9382 28.6807 93.9851 28.6924 94.0261C28.7041 94.0671 28.71 94.0906 28.71 94.0964C28.7158 94.114 28.7246 94.155 28.7363 94.2195C28.748 94.2839 28.7598 94.3542 28.7715 94.4304C28.7891 94.5066 28.8037 94.5769 28.8154 94.6414C28.8271 94.7 28.833 94.7351 28.833 94.7468C28.8389 94.7644 28.8535 94.8201 28.877 94.9138C28.9062 95.0076 28.9385 95.116 28.9736 95.239C29.0088 95.3621 29.0439 95.4851 29.0791 95.6082C29.1143 95.7253 29.1436 95.8191 29.167 95.8894C29.2139 96.0476 29.2725 96.2058 29.3428 96.364C29.4131 96.5164 29.4658 96.6716 29.501 96.8298C29.5303 96.9646 29.5479 97.073 29.5537 97.155C29.5654 97.2312 29.5947 97.325 29.6416 97.4363C29.6475 97.448 29.6592 97.4744 29.6768 97.5154C29.7002 97.5505 29.7236 97.5916 29.7471 97.6384C29.7705 97.6794 29.791 97.7205 29.8086 97.7615C29.8262 97.8025 29.8379 97.8318 29.8438 97.8494C29.8438 97.8611 29.8467 97.8816 29.8525 97.9109C29.8584 97.9402 29.8643 97.9753 29.8701 98.0164C29.8818 98.0515 29.8906 98.0867 29.8965 98.1218C29.9023 98.1511 29.9082 98.1716 29.9141 98.1833C29.9141 98.1892 29.9199 98.2097 29.9316 98.2449C29.9434 98.2742 29.958 98.3093 29.9756 98.3503C29.9932 98.3855 30.0078 98.4207 30.0195 98.4558C30.0371 98.4851 30.0488 98.4998 30.0547 98.4998C30.084 98.6521 30.1221 98.8162 30.1689 98.9919C30.2158 99.1677 30.2891 99.323 30.3887 99.4578C30.4355 99.5281 30.5205 99.5867 30.6436 99.6335C30.7725 99.6804 30.9014 99.7273 31.0303 99.7742C31.165 99.821 31.2822 99.8738 31.3818 99.9324C31.4814 99.991 31.5312 100.067 31.5312 100.161C31.5312 100.26 31.5049 100.34 31.4521 100.398C31.4053 100.451 31.3438 100.492 31.2676 100.521C31.1914 100.551 31.1064 100.568 31.0127 100.574C30.9189 100.58 30.8311 100.583 30.749 100.583H30.5732H30.3887C30.2949 100.583 30.1309 100.58 29.8965 100.574C29.6621 100.568 29.4102 100.562 29.1406 100.556C28.877 100.545 28.625 100.536 28.3848 100.53C28.1504 100.518 27.9863 100.512 27.8926 100.512C27.8281 100.489 27.79 100.463 27.7783 100.433C27.7666 100.398 27.7607 100.348 27.7607 100.284V100.222C27.7607 100.211 27.7637 100.199 27.7695 100.187C27.8223 100.076 27.8955 100.003 27.9893 99.9675C28.083 99.9265 28.1797 99.8943 28.2793 99.8708C28.3848 99.8474 28.4873 99.821 28.5869 99.7917C28.6865 99.7566 28.7686 99.6863 28.833 99.5808L28.8506 99.5193L28.833 99.4578C28.8271 99.405 28.8125 99.3318 28.7891 99.238C28.7715 99.1443 28.751 99.0505 28.7275 98.9568C28.71 98.863 28.6924 98.781 28.6748 98.7107C28.6572 98.6345 28.6455 98.5906 28.6396 98.5789C28.6279 98.5671 28.6104 98.5378 28.5869 98.491C28.5635 98.4441 28.5371 98.3914 28.5078 98.3328C28.4844 98.2742 28.458 98.2185 28.4287 98.1658C28.4053 98.1072 28.3848 98.0632 28.3672 98.0339C28.3027 97.9343 28.2119 97.8757 28.0947 97.8582C27.9834 97.8347 27.8721 97.823 27.7607 97.823H27.585C27.374 97.823 27.1748 97.8376 26.9873 97.8669C26.8057 97.8962 26.6123 97.9109 26.4072 97.9109C26.3662 97.9109 26.3252 97.908 26.2842 97.9021C26.2432 97.8962 26.2021 97.8933 26.1611 97.8933C26.1201 97.9343 26.0996 97.9666 26.0996 97.99C26.0879 97.9958 26.0732 98.0193 26.0557 98.0603C26.0439 98.0955 26.0293 98.1365 26.0117 98.1833C26 98.2244 25.9854 98.2654 25.9678 98.3064C25.9561 98.3416 25.9502 98.3621 25.9502 98.3679C25.9502 98.3796 25.9297 98.4148 25.8887 98.4734C25.8535 98.532 25.8271 98.5671 25.8096 98.5789C25.7393 98.7253 25.6982 98.8777 25.6865 99.0359C25.6748 99.1882 25.6689 99.3464 25.6689 99.5105C25.6689 99.6042 25.6982 99.6746 25.7568 99.7214C25.8154 99.7625 25.8887 99.7947 25.9766 99.8181C26.0645 99.8416 26.1582 99.8621 26.2578 99.8796C26.3574 99.8914 26.4512 99.9119 26.5391 99.9412C26.627 99.9646 26.7002 100.003 26.7588 100.055C26.8174 100.108 26.8467 100.184 26.8467 100.284C26.8467 100.477 26.7559 100.597 26.5742 100.644C26.5508 100.644 26.5068 100.641 26.4424 100.635C26.3838 100.63 26.3223 100.624 26.2578 100.618C26.1934 100.612 26.1318 100.606 26.0732 100.6C26.0146 100.594 25.9736 100.589 25.9502 100.583H25.3262H25.0801C25.0625 100.583 25.0156 100.58 24.9395 100.574C24.8633 100.568 24.7783 100.562 24.6846 100.556C24.5908 100.545 24.5059 100.536 24.4297 100.53C24.3535 100.518 24.3066 100.512 24.2891 100.512H24.2451ZM33.1924 100.556C33.1807 100.556 33.1455 100.562 33.0869 100.574C33.0342 100.592 33.0049 100.6 32.999 100.6H32.9639C32.8877 100.6 32.8115 100.597 32.7354 100.592C32.665 100.586 32.6006 100.571 32.542 100.548C32.4893 100.524 32.4453 100.489 32.4102 100.442C32.375 100.395 32.3574 100.331 32.3574 100.249V100.117C32.3633 100.058 32.4336 100.017 32.5684 99.9939C32.709 99.9646 32.8643 99.947 33.0342 99.9412C33.2041 99.9294 33.3652 99.9207 33.5176 99.9148C33.6699 99.9031 33.7607 99.8796 33.79 99.8445C33.7959 99.8152 33.8018 99.7888 33.8076 99.7654C33.8135 99.7419 33.8193 99.7214 33.8252 99.7039C33.8311 99.6863 33.834 99.6716 33.834 99.6599C33.834 99.6365 33.8369 99.6013 33.8428 99.5544C33.8545 99.5017 33.8633 99.449 33.8691 99.3962C33.8809 99.3376 33.8896 99.2849 33.8955 99.238C33.9014 99.1912 33.9043 99.1589 33.9043 99.1414C33.9043 99.0945 33.9072 98.9978 33.9131 98.8513C33.9189 98.699 33.9248 98.5349 33.9307 98.3591C33.9365 98.1833 33.9424 98.0134 33.9482 97.8494C33.9541 97.6853 33.957 97.5681 33.957 97.4978C33.957 97.4685 33.957 97.4158 33.957 97.3396C33.9629 97.2576 33.9658 97.1697 33.9658 97.0759C33.9658 96.9822 33.9629 96.8972 33.957 96.821C33.957 96.7449 33.957 96.6863 33.957 96.6453L34.001 96.531C34.001 96.5251 34.0039 96.4666 34.0098 96.3552C34.0156 96.238 34.0215 96.1003 34.0273 95.9421C34.0391 95.7839 34.0479 95.6228 34.0537 95.4587C34.0654 95.2947 34.0713 95.1599 34.0713 95.0544V94.4568V93.8328C34.0713 93.8093 34.0654 93.7742 34.0537 93.7273C34.0479 93.6804 34.042 93.6335 34.0361 93.5867C34.0303 93.5339 34.0215 93.49 34.0098 93.4548C34.0039 93.4138 34.001 93.3875 34.001 93.3757C33.9717 93.2878 33.9131 93.2263 33.8252 93.1912C33.7432 93.1501 33.6436 93.1208 33.5264 93.1033C33.415 93.0857 33.2949 93.0769 33.166 93.0769C33.043 93.071 32.9287 93.0593 32.8232 93.0417C32.7178 93.0242 32.6299 92.9949 32.5596 92.9539C32.4951 92.907 32.4629 92.8367 32.4629 92.7429C32.4629 92.6902 32.4805 92.6433 32.5156 92.6023C32.5508 92.5554 32.5918 92.5144 32.6387 92.4792C32.6855 92.4441 32.7354 92.4177 32.7881 92.4001C32.8467 92.3767 32.8965 92.365 32.9375 92.365C33.0195 92.365 33.1191 92.3767 33.2363 92.4001C33.3535 92.4236 33.4443 92.4294 33.5088 92.4177C33.5264 92.4177 33.5615 92.4148 33.6143 92.4089C33.667 92.4031 33.7227 92.3972 33.7812 92.3914C33.8457 92.3855 33.9043 92.3796 33.957 92.3738C34.0156 92.3679 34.0537 92.365 34.0713 92.365C34.1006 92.365 34.168 92.3679 34.2734 92.3738C34.3789 92.3796 34.4902 92.3855 34.6074 92.3914C34.7305 92.3972 34.8447 92.406 34.9502 92.4177C35.0557 92.4236 35.123 92.4294 35.1523 92.4353H35.2578H35.3369C35.3486 92.4294 35.375 92.4236 35.416 92.4177C35.457 92.406 35.498 92.3972 35.5391 92.3914C35.5859 92.3855 35.627 92.3796 35.6621 92.3738C35.7031 92.3679 35.7266 92.365 35.7324 92.365H36.1719C36.1777 92.365 36.1982 92.3621 36.2334 92.3562C36.2686 92.3503 36.3037 92.3445 36.3389 92.3386C36.3799 92.3328 36.415 92.3269 36.4443 92.321C36.4795 92.3152 36.5 92.3123 36.5059 92.3123H36.541C36.5527 92.3123 36.5615 92.3123 36.5674 92.3123C36.5791 92.3064 36.5908 92.3035 36.6025 92.3035C36.6729 92.3035 36.7432 92.3064 36.8135 92.3123C36.8838 92.3181 36.9482 92.3328 37.0068 92.3562C37.0654 92.3738 37.1123 92.406 37.1475 92.4529C37.1885 92.4998 37.209 92.5642 37.209 92.6462C37.209 92.6638 37.2031 92.6902 37.1914 92.7253C37.1797 92.7546 37.1738 92.7751 37.1738 92.7869C37.127 92.8162 37.0537 92.8601 36.9541 92.9187C36.8545 92.9714 36.7725 93.0037 36.708 93.0154C36.6846 93.0154 36.6318 93.0212 36.5498 93.033C36.4736 93.0388 36.3916 93.0476 36.3037 93.0593C36.2158 93.0652 36.1338 93.074 36.0576 93.0857C35.9814 93.0916 35.9346 93.0945 35.917 93.0945C35.8701 93.1003 35.8291 93.1208 35.7939 93.156C35.7646 93.1853 35.7441 93.2234 35.7324 93.2703C35.6797 93.5339 35.6445 93.7947 35.627 94.0525C35.6152 94.3103 35.6094 94.574 35.6094 94.8435V95.6873V95.9685C35.6094 95.9744 35.6035 96.0095 35.5918 96.074C35.5859 96.1326 35.5771 96.2 35.5654 96.2761C35.5596 96.3464 35.5508 96.4138 35.5391 96.4783C35.5332 96.5427 35.5303 96.5837 35.5303 96.6013V97.9373V98.447C35.5303 98.4646 35.5273 98.5027 35.5215 98.5613C35.5156 98.6199 35.5098 98.6814 35.5039 98.7458C35.498 98.8103 35.4922 98.8689 35.4863 98.9216C35.4805 98.9744 35.4775 99.0066 35.4775 99.0183V99.0623V99.1414C35.4775 99.1531 35.4863 99.1853 35.5039 99.238C35.5215 99.2849 35.5303 99.3142 35.5303 99.3259C35.5303 99.3376 35.5215 99.3582 35.5039 99.3875C35.4863 99.4109 35.4775 99.4314 35.4775 99.449C35.4717 99.4666 35.4688 99.4841 35.4688 99.5017C35.4629 99.5134 35.46 99.5281 35.46 99.5457C35.46 99.5574 35.46 99.5691 35.46 99.5808C35.46 99.6921 35.4922 99.7976 35.5566 99.8972C35.627 99.991 35.7148 100.038 35.8203 100.038H35.873C36.043 100.009 36.2188 99.9822 36.4004 99.9587C36.5879 99.9294 36.7666 99.9148 36.9365 99.9148H38.4219C38.4453 99.9148 38.4834 99.9119 38.5361 99.906C38.5947 99.9001 38.6504 99.8943 38.7031 99.8884C38.7559 99.8826 38.8027 99.8767 38.8438 99.8708C38.8848 99.8591 38.9082 99.8503 38.9141 99.8445C38.9258 99.8386 38.9492 99.821 38.9844 99.7917C39.0195 99.7566 39.0576 99.7185 39.0986 99.6775C39.1455 99.6306 39.1865 99.5867 39.2217 99.5457C39.2627 99.5046 39.292 99.4724 39.3096 99.449C39.3096 99.4431 39.3154 99.4285 39.3271 99.405C39.3389 99.3757 39.3506 99.3494 39.3623 99.3259C39.374 99.2966 39.3857 99.2703 39.3975 99.2468C39.4092 99.2234 39.418 99.2087 39.4238 99.2029C39.4238 99.197 39.4326 99.1882 39.4502 99.1765C39.4736 99.1589 39.4971 99.1414 39.5205 99.1238C39.5439 99.1062 39.5645 99.0916 39.582 99.0798C39.6055 99.0681 39.6201 99.0623 39.626 99.0623L39.6699 99.0183C39.6816 99.0125 39.7051 98.9802 39.7402 98.9216C39.7754 98.8572 39.793 98.8191 39.793 98.8074C39.8164 98.7839 39.8457 98.7488 39.8809 98.7019C39.9219 98.6492 39.9629 98.5964 40.0039 98.5437C40.0508 98.4851 40.0918 98.4324 40.127 98.3855C40.1621 98.3328 40.1885 98.2976 40.2061 98.28C40.2295 98.2507 40.2441 98.2332 40.25 98.2273C40.2617 98.2214 40.291 98.2185 40.3379 98.2185C40.4316 98.2185 40.5049 98.2566 40.5576 98.3328C40.6104 98.4031 40.6484 98.488 40.6719 98.5876C40.6953 98.6873 40.707 98.7898 40.707 98.8953C40.7129 98.9949 40.7158 99.0769 40.7158 99.1414C40.7158 99.1707 40.7158 99.2058 40.7158 99.2468C40.7158 99.2878 40.7158 99.3289 40.7158 99.3699C40.7158 99.4109 40.7129 99.446 40.707 99.4753C40.707 99.5046 40.707 99.5193 40.707 99.5193C40.707 99.531 40.6982 99.5632 40.6807 99.616C40.6631 99.6628 40.6543 99.6921 40.6543 99.7039C40.6426 99.8386 40.6367 99.9558 40.6367 100.055C40.6367 100.149 40.6221 100.231 40.5928 100.302C40.5693 100.372 40.5225 100.43 40.4521 100.477C40.3877 100.524 40.2793 100.565 40.127 100.6C40.0742 100.606 39.9775 100.609 39.8369 100.609C39.6963 100.615 39.5439 100.618 39.3799 100.618C39.2217 100.618 39.0693 100.618 38.9229 100.618C38.7822 100.618 38.6826 100.618 38.624 100.618C38.5186 100.618 38.3838 100.618 38.2197 100.618C38.0557 100.618 37.8945 100.618 37.7363 100.618C37.584 100.618 37.4492 100.615 37.332 100.609C37.2148 100.609 37.1533 100.606 37.1475 100.6C37.1182 100.6 37.0596 100.597 36.9717 100.592C36.8896 100.592 36.7959 100.589 36.6904 100.583C36.5908 100.583 36.4912 100.58 36.3916 100.574C36.2979 100.568 36.2246 100.562 36.1719 100.556C36.166 100.556 36.1484 100.553 36.1191 100.548C36.0898 100.542 36.0576 100.536 36.0225 100.53C35.9873 100.524 35.9551 100.518 35.9258 100.512C35.8965 100.507 35.8789 100.501 35.873 100.495H35.8203H35.7324C35.7031 100.501 35.6445 100.507 35.5566 100.512C35.4688 100.518 35.375 100.524 35.2754 100.53C35.1758 100.536 35.0791 100.542 34.9854 100.548C34.8975 100.553 34.8418 100.556 34.8184 100.556H34.2295C34.2178 100.556 34.1768 100.562 34.1064 100.574C34.042 100.592 34.0068 100.6 34.001 100.6C33.96 100.624 33.9102 100.635 33.8516 100.635C33.7988 100.641 33.7578 100.644 33.7285 100.644C33.7109 100.644 33.6758 100.638 33.623 100.627C33.5703 100.621 33.5117 100.612 33.4473 100.6C33.3887 100.589 33.333 100.577 33.2803 100.565C33.2275 100.559 33.1982 100.556 33.1924 100.556ZM42.4912 93.5955C42.4736 93.4841 42.4502 93.3962 42.4209 93.3318C42.3916 93.2615 42.3535 93.2058 42.3066 93.1648C42.2598 93.1179 42.2012 93.0769 42.1309 93.0417C42.0605 93.0066 41.9727 92.9626 41.8672 92.9099C41.8027 92.8806 41.7354 92.8601 41.665 92.8484C41.6006 92.8308 41.5596 92.8162 41.542 92.8044C41.5068 92.7634 41.4805 92.7078 41.4629 92.6375C41.4453 92.5613 41.4365 92.5056 41.4365 92.4705C41.4365 92.4587 41.4365 92.4353 41.4365 92.4001C41.4424 92.3591 41.457 92.3298 41.4805 92.3123C41.4922 92.3064 41.5244 92.2976 41.5771 92.2859C41.6299 92.2742 41.6709 92.2625 41.7002 92.2507C41.7588 92.2449 41.8232 92.239 41.8936 92.2332C41.9697 92.2273 42.04 92.2244 42.1045 92.2244C42.2041 92.2244 42.3066 92.2332 42.4121 92.2507C42.5176 92.2625 42.6553 92.283 42.8252 92.3123H43.1592C43.2705 92.3123 43.376 92.3123 43.4756 92.3123C43.5752 92.3123 43.6719 92.3093 43.7656 92.3035C43.8594 92.2976 43.9531 92.2917 44.0469 92.2859C44.1406 92.28 44.2432 92.2683 44.3545 92.2507C44.3721 92.2507 44.4072 92.2419 44.46 92.2244C44.5127 92.2068 44.5449 92.198 44.5566 92.198H44.6182C44.7529 92.198 44.876 92.2214 44.9873 92.2683C45.1045 92.3152 45.1631 92.4119 45.1631 92.5583C45.1631 92.658 45.1279 92.7341 45.0576 92.7869C44.9873 92.8396 44.9023 92.8865 44.8027 92.9275C44.709 92.9685 44.6123 93.0095 44.5127 93.0505C44.4189 93.0857 44.3457 93.1355 44.293 93.2C44.2344 93.2644 44.1875 93.3435 44.1523 93.4373C44.1172 93.5251 44.0879 93.6218 44.0645 93.7273C44.0469 93.8269 44.0352 93.9265 44.0293 94.0261C44.0234 94.1257 44.0205 94.2136 44.0205 94.2898C44.0205 94.3835 44.0322 94.4597 44.0557 94.5183C44.085 94.5769 44.0996 94.6472 44.0996 94.7292C44.0996 94.7468 44.0967 94.7732 44.0908 94.8083C44.0908 94.8376 44.082 94.8582 44.0645 94.8699C44.0645 94.8816 44.0615 94.9138 44.0557 94.9666C44.0498 95.0193 44.0439 95.0779 44.0381 95.1423C44.0381 95.2009 44.0352 95.2566 44.0293 95.3093C44.0234 95.3621 44.0205 95.3972 44.0205 95.4148V96.1882C44.0205 96.2175 44.0088 96.2673 43.9854 96.3376C43.9678 96.408 43.9561 96.4548 43.9502 96.4783V96.575V96.6628C43.9502 96.6746 43.9531 96.7039 43.959 96.7507C43.9707 96.7976 43.9795 96.8474 43.9854 96.9001C43.9971 96.9529 44.0059 97.0027 44.0117 97.0496C44.0176 97.0964 44.0205 97.1257 44.0205 97.1375C44.0264 97.1667 44.0293 97.2195 44.0293 97.2957C44.0352 97.366 44.041 97.4421 44.0469 97.5242C44.0527 97.6003 44.0557 97.6736 44.0557 97.7439C44.0615 97.8142 44.0645 97.864 44.0645 97.8933C44.0703 97.9402 44.082 98.0017 44.0996 98.0779C44.1172 98.1482 44.1348 98.2214 44.1523 98.2976C44.1758 98.3738 44.1992 98.447 44.2227 98.5173C44.2461 98.5876 44.2695 98.6433 44.293 98.6843C44.3164 98.7429 44.3574 98.8162 44.416 98.9041C44.4805 98.9919 44.5508 99.0798 44.627 99.1677C44.7031 99.2498 44.7793 99.323 44.8555 99.3875C44.9375 99.4519 45.0137 99.4929 45.084 99.5105C45.0957 99.5105 45.1221 99.5222 45.1631 99.5457C45.2041 99.5632 45.2393 99.572 45.2686 99.572C45.3096 99.572 45.3301 99.575 45.3301 99.5808C45.3945 99.5867 45.4531 99.6013 45.5059 99.6248C45.5586 99.6423 45.6084 99.6628 45.6553 99.6863C45.7021 99.7039 45.752 99.7214 45.8047 99.739C45.8574 99.7566 45.916 99.7654 45.9805 99.7654H46.1035C46.1094 99.7595 46.1299 99.7478 46.165 99.7302C46.2002 99.7126 46.2354 99.6951 46.2705 99.6775C46.3115 99.6599 46.3467 99.6453 46.376 99.6335C46.4111 99.6218 46.4316 99.616 46.4375 99.616H46.5781C46.6367 99.5984 46.6982 99.5808 46.7627 99.5632C46.8096 99.5515 46.8594 99.5427 46.9121 99.5369C46.9648 99.5251 47.0059 99.5164 47.0352 99.5105C47.1934 99.4578 47.334 99.3611 47.457 99.2205C47.5859 99.074 47.6885 98.9421 47.7646 98.825C47.7705 98.8132 47.7793 98.7869 47.791 98.7458C47.8086 98.7048 47.8232 98.6638 47.835 98.6228C47.8525 98.5759 47.8672 98.532 47.8789 98.491C47.8906 98.45 47.8965 98.4236 47.8965 98.4119C47.9668 98.2302 48.0195 98.0398 48.0547 97.8406C48.0898 97.6414 48.1133 97.4392 48.125 97.2341C48.1367 97.0232 48.1455 96.8152 48.1514 96.6101C48.1572 96.405 48.1689 96.2058 48.1865 96.0125C48.1865 96.0066 48.1895 95.989 48.1953 95.9597C48.2012 95.9246 48.2041 95.8894 48.2041 95.8542C48.21 95.8132 48.2158 95.7781 48.2217 95.7488C48.2275 95.7136 48.2305 95.6902 48.2305 95.6785V95.3093V94.9138C48.2246 94.8669 48.2158 94.782 48.2041 94.6589C48.1924 94.5359 48.1777 94.4041 48.1602 94.2634C48.1484 94.1228 48.1367 93.991 48.125 93.8679C48.1191 93.739 48.1162 93.6482 48.1162 93.5955C48.1045 93.5662 48.0811 93.5105 48.0459 93.4285C48.0107 93.3406 47.9814 93.2849 47.958 93.2615C47.9521 93.2322 47.9434 93.2029 47.9316 93.1736C47.9199 93.1384 47.9082 93.1208 47.8965 93.1208C47.8555 93.0798 47.8174 93.0593 47.7822 93.0593C47.7529 93.0593 47.7266 93.0623 47.7031 93.0681C47.6855 93.074 47.665 93.0769 47.6416 93.0769C47.6123 93.0769 47.5859 93.071 47.5625 93.0593C47.416 93.03 47.2812 92.9949 47.1582 92.9539C47.041 92.9128 46.9326 92.8279 46.833 92.699C46.8213 92.6697 46.8125 92.6492 46.8066 92.6375C46.8066 92.6257 46.8066 92.5994 46.8066 92.5583C46.8066 92.5466 46.8096 92.5349 46.8154 92.5232C46.8213 92.5056 46.8271 92.491 46.833 92.4792C46.9268 92.3621 47.041 92.2917 47.1758 92.2683C47.3105 92.239 47.4512 92.2244 47.5977 92.2244C47.7031 92.2244 47.8086 92.2302 47.9141 92.2419C48.0195 92.2478 48.1221 92.2507 48.2217 92.2507C48.2686 92.2507 48.3359 92.2419 48.4238 92.2244C48.5176 92.2068 48.5967 92.198 48.6611 92.198H49.2061C49.2588 92.198 49.3203 92.1951 49.3906 92.1892C49.4668 92.1833 49.543 92.1804 49.6191 92.1804C49.7363 92.1804 49.8506 92.1892 49.9619 92.2068C50.0732 92.2244 50.167 92.2595 50.2432 92.3123C50.2549 92.3298 50.2607 92.3621 50.2607 92.4089C50.2666 92.4558 50.2695 92.4851 50.2695 92.4968C50.2695 92.614 50.2402 92.7048 50.1816 92.7693C50.1289 92.8279 50.0586 92.8748 49.9707 92.9099C49.8887 92.9392 49.7979 92.9626 49.6982 92.9802C49.6045 92.9978 49.5166 93.0242 49.4346 93.0593C49.3408 93.1003 49.2646 93.1648 49.2061 93.2527C49.1475 93.3406 49.1182 93.4373 49.1182 93.5427C49.1182 93.6365 49.127 93.7185 49.1445 93.7888C49.168 93.8591 49.1797 93.9412 49.1797 94.0349V94.1843C49.1797 94.2019 49.168 94.24 49.1445 94.2986C49.127 94.3572 49.1182 94.3894 49.1182 94.3953V94.615V95.1248C49.1123 95.1892 49.1064 95.3005 49.1006 95.4587C49.0947 95.6169 49.0859 95.7869 49.0742 95.9685C49.0684 96.1443 49.0625 96.3113 49.0566 96.4695C49.0508 96.6277 49.0449 96.739 49.0391 96.8035C49.0098 96.8621 48.9893 96.9207 48.9775 96.9792C48.9658 97.032 48.957 97.0876 48.9512 97.1462C48.9453 97.199 48.9395 97.2517 48.9336 97.3044C48.9336 97.3572 48.9248 97.4128 48.9072 97.4714C48.9014 97.489 48.8926 97.5212 48.8809 97.5681C48.8691 97.6091 48.8545 97.656 48.8369 97.7087C48.8252 97.7615 48.8135 97.8113 48.8018 97.8582C48.79 97.8992 48.7842 97.9255 48.7842 97.9373C48.7725 97.949 48.7637 97.9783 48.7578 98.0251C48.752 98.0662 48.7461 98.1101 48.7402 98.157C48.7402 98.198 48.7344 98.239 48.7227 98.28C48.7168 98.3152 48.7109 98.3328 48.7051 98.3328C48.7051 98.3503 48.6846 98.3914 48.6436 98.4558C48.6025 98.5144 48.5791 98.5496 48.5732 98.5613C48.5615 98.573 48.541 98.6111 48.5117 98.6755C48.4824 98.74 48.4473 98.8103 48.4062 98.8865C48.3711 98.9626 48.3359 99.033 48.3008 99.0974C48.2656 99.1619 48.2422 99.2029 48.2305 99.2205C48.125 99.4197 47.9873 99.5984 47.8174 99.7566C47.6533 99.9148 47.4775 100.076 47.29 100.24C47.2666 100.258 47.2314 100.284 47.1846 100.319C47.1377 100.348 47.0879 100.381 47.0352 100.416C46.9883 100.451 46.9443 100.483 46.9033 100.512C46.8623 100.536 46.8389 100.551 46.833 100.556H46.5781C46.4668 100.568 46.3672 100.58 46.2793 100.592C46.1973 100.609 46.1152 100.624 46.0332 100.635C45.9512 100.653 45.8662 100.668 45.7783 100.679C45.6904 100.691 45.5908 100.697 45.4795 100.697H44.9521C44.8877 100.668 44.8203 100.647 44.75 100.635C44.6797 100.624 44.6094 100.612 44.5391 100.6C44.4746 100.594 44.4102 100.583 44.3457 100.565C44.2812 100.553 44.2197 100.53 44.1611 100.495C44.1436 100.489 44.1055 100.469 44.0469 100.433C43.9883 100.392 43.9209 100.345 43.8447 100.293C43.7744 100.24 43.7041 100.19 43.6338 100.143C43.5635 100.091 43.5107 100.047 43.4756 100.011L43.4141 99.9675C43.3672 99.8914 43.3174 99.8269 43.2646 99.7742C43.2119 99.7156 43.1592 99.6599 43.1064 99.6072C43.0537 99.5544 43.001 99.4988 42.9482 99.4402C42.9014 99.3757 42.8604 99.3025 42.8252 99.2205C42.7021 98.9392 42.6143 98.6375 42.5615 98.3152C42.5146 97.9871 42.4912 97.6648 42.4912 97.3484C42.4854 97.2781 42.4795 97.1814 42.4736 97.0583C42.4736 96.9294 42.4736 96.783 42.4736 96.6189C42.4736 96.449 42.4736 96.2673 42.4736 96.074C42.4736 95.8806 42.4736 95.6814 42.4736 95.4763C42.4736 95.2771 42.4736 95.0808 42.4736 94.8875C42.4736 94.6941 42.4736 94.5154 42.4736 94.3513C42.4736 94.1814 42.4736 94.032 42.4736 93.9031C42.4795 93.7683 42.4854 93.6658 42.4912 93.5955ZM56.1318 93.5603C56.1787 93.5369 56.2109 93.4958 56.2285 93.4373C56.2461 93.3787 56.2549 93.3201 56.2549 93.2615C56.2549 93.1384 56.208 93.0535 56.1143 93.0066C56.0264 92.9539 55.9268 92.9158 55.8154 92.8923C55.71 92.863 55.6104 92.8337 55.5166 92.8044C55.4287 92.7693 55.3848 92.7078 55.3848 92.6199C55.3848 92.5906 55.3965 92.5671 55.4199 92.5496C55.4434 92.5261 55.4727 92.5085 55.5078 92.4968C55.543 92.4792 55.5781 92.4646 55.6133 92.4529C55.6543 92.4412 55.6895 92.4294 55.7188 92.4177C55.748 92.406 55.7949 92.3943 55.8594 92.3826C55.9297 92.3708 55.9707 92.365 55.9824 92.365H57.5293C57.6348 92.3181 57.7373 92.2917 57.8369 92.2859C57.9365 92.2742 58.0361 92.2683 58.1357 92.2683C58.2119 92.2683 58.2822 92.2712 58.3467 92.2771C58.417 92.2771 58.4756 92.2859 58.5225 92.3035C58.5752 92.321 58.6162 92.3533 58.6455 92.4001C58.6748 92.447 58.6895 92.5144 58.6895 92.6023C58.6895 92.7253 58.6543 92.8191 58.584 92.8835C58.5195 92.948 58.4375 92.9978 58.3379 93.033C58.2383 93.0623 58.1328 93.0857 58.0215 93.1033C57.916 93.1208 57.8223 93.1414 57.7402 93.1648C57.4766 93.2585 57.2422 93.3845 57.0371 93.5427C56.8379 93.6951 56.6475 93.8826 56.4658 94.1052C56.4482 94.1228 56.416 94.1609 56.3691 94.2195C56.3223 94.2722 56.2695 94.3308 56.2109 94.3953C56.1582 94.4597 56.1084 94.5212 56.0615 94.5798C56.0146 94.6326 55.9824 94.6677 55.9648 94.6853C55.9414 94.7146 55.915 94.7498 55.8857 94.7908C55.8564 94.8318 55.8213 94.8669 55.7803 94.8962C55.7041 94.9607 55.6309 95.0427 55.5605 95.1423C55.4902 95.2419 55.4316 95.3386 55.3848 95.4324C55.3613 95.4734 55.3408 95.5115 55.3232 95.5466C55.3115 95.5818 55.3057 95.6287 55.3057 95.6873C55.3057 95.8103 55.3379 95.9392 55.4023 96.074C55.4668 96.2087 55.5283 96.3347 55.5869 96.4519C55.6104 96.4871 55.6396 96.5398 55.6748 96.6101C55.71 96.6746 55.7451 96.739 55.7803 96.8035C55.8154 96.8679 55.8447 96.9265 55.8682 96.9792C55.8975 97.032 55.915 97.0642 55.9209 97.0759C55.9268 97.0876 55.9473 97.1228 55.9824 97.1814C56.0234 97.2341 56.0674 97.2957 56.1143 97.366C56.1611 97.4304 56.2021 97.4919 56.2373 97.5505C56.2783 97.6091 56.3047 97.6472 56.3164 97.6648L56.5273 98.0603C56.5977 98.2244 56.6709 98.3884 56.7471 98.5525C56.8232 98.7107 56.9053 98.866 56.9932 99.0183C57.0811 99.1648 57.1807 99.3054 57.292 99.4402C57.4033 99.575 57.5322 99.7039 57.6787 99.8269C57.7314 99.8679 57.7988 99.9031 57.8809 99.9324C57.9629 99.9558 58.042 99.9822 58.1182 100.011C58.2002 100.041 58.2676 100.082 58.3203 100.135C58.3789 100.181 58.4082 100.252 58.4082 100.345C58.4082 100.463 58.3701 100.536 58.2939 100.565C58.2236 100.6 58.1416 100.618 58.0479 100.618C57.9951 100.618 57.9395 100.615 57.8809 100.609C57.8281 100.603 57.7812 100.6 57.7402 100.6C57.7168 100.612 57.6582 100.621 57.5645 100.627C57.4707 100.638 57.3682 100.65 57.2568 100.662C57.1514 100.674 57.0518 100.682 56.958 100.688C56.8643 100.694 56.8057 100.697 56.7822 100.697H56.7383C56.7324 100.697 56.7119 100.694 56.6768 100.688C56.6416 100.682 56.6035 100.674 56.5625 100.662C56.5273 100.65 56.4893 100.638 56.4482 100.627C56.4131 100.621 56.3926 100.612 56.3867 100.6C56.3574 100.6 56.2959 100.597 56.2021 100.592C56.1143 100.586 56.0176 100.58 55.9121 100.574C55.8125 100.574 55.7188 100.571 55.6309 100.565C55.543 100.559 55.4873 100.556 55.4639 100.556C55.4404 100.556 55.3906 100.551 55.3145 100.539C55.2441 100.521 55.1973 100.507 55.1738 100.495V100.433C55.1738 100.34 55.1943 100.275 55.2354 100.24C55.2822 100.205 55.3291 100.176 55.376 100.152C55.4287 100.123 55.4756 100.088 55.5166 100.047C55.5635 100.006 55.5869 99.9324 55.5869 99.8269C55.5869 99.7683 55.5693 99.6746 55.5342 99.5457C55.499 99.4167 55.4492 99.2761 55.3848 99.1238C55.3262 98.9656 55.2588 98.8044 55.1826 98.6404C55.1123 98.4763 55.0361 98.3269 54.9541 98.1921C54.8779 98.0574 54.8047 97.946 54.7344 97.8582C54.6641 97.7703 54.6025 97.7263 54.5498 97.7263C54.4502 97.7263 54.3682 97.7556 54.3037 97.8142C54.2393 97.8669 54.1836 97.9343 54.1367 98.0164C54.0898 98.0925 54.0488 98.1746 54.0137 98.2625C53.9785 98.3503 53.9434 98.4265 53.9082 98.491C53.8906 98.5203 53.8467 98.5906 53.7764 98.7019C53.7061 98.8074 53.627 98.9246 53.5391 99.0535C53.457 99.1824 53.3779 99.3025 53.3018 99.4138C53.2314 99.5251 53.1875 99.5925 53.1699 99.616C53.1582 99.6218 53.1436 99.6423 53.126 99.6775C53.1143 99.7068 53.1025 99.7273 53.0908 99.739V99.8005C53.0908 99.8826 53.126 99.9412 53.1963 99.9763C53.2666 100.011 53.3486 100.044 53.4424 100.073C53.5361 100.096 53.6299 100.129 53.7236 100.17C53.8232 100.205 53.8994 100.263 53.9521 100.345C53.9521 100.422 53.9316 100.474 53.8906 100.504C53.8555 100.527 53.8115 100.545 53.7588 100.556H51.2979C51.251 100.556 51.2217 100.539 51.21 100.504C51.2041 100.463 51.2012 100.433 51.2012 100.416V100.345C51.2715 100.263 51.3506 100.196 51.4385 100.143C51.5322 100.091 51.626 100.044 51.7197 100.003C51.8193 99.9617 51.9189 99.9236 52.0186 99.8884C52.1182 99.8474 52.2119 99.7976 52.2998 99.739C52.3232 99.7156 52.3701 99.6716 52.4404 99.6072C52.5107 99.5369 52.584 99.4636 52.6602 99.3875C52.7422 99.3113 52.8184 99.238 52.8887 99.1677C52.9648 99.0974 53.0176 99.0476 53.0469 99.0183C53.1992 98.8425 53.3281 98.6609 53.4336 98.4734C53.5449 98.28 53.6533 98.0837 53.7588 97.8845C53.7705 97.8669 53.7969 97.8406 53.8379 97.8054C53.8789 97.7644 53.9023 97.738 53.9082 97.7263C53.9258 97.7029 53.9492 97.6707 53.9785 97.6296C54.0137 97.5828 54.043 97.5388 54.0664 97.4978C54.0957 97.4568 54.1191 97.4216 54.1367 97.3923C54.1602 97.3572 54.1719 97.3367 54.1719 97.3308C54.1719 97.3308 54.1719 97.3162 54.1719 97.2869C54.1777 97.2517 54.1807 97.2136 54.1807 97.1726C54.1865 97.1316 54.1895 97.0935 54.1895 97.0583C54.1953 97.0173 54.1982 96.988 54.1982 96.9705C54.1982 96.9529 54.1953 96.9265 54.1895 96.8914C54.1895 96.8562 54.1865 96.8181 54.1807 96.7771C54.1807 96.7361 54.1777 96.698 54.1719 96.6628C54.1719 96.6218 54.1719 96.5955 54.1719 96.5837C54.0078 96.4841 53.8848 96.3699 53.8027 96.241C53.7207 96.1062 53.6445 95.9539 53.5742 95.7839C53.5684 95.7664 53.5508 95.7341 53.5215 95.6873C53.4922 95.6404 53.4629 95.5935 53.4336 95.5466C53.4043 95.4939 53.375 95.447 53.3457 95.406C53.3223 95.3591 53.3076 95.3328 53.3018 95.3269C53.2783 95.28 53.2432 95.2068 53.1963 95.1072C53.1553 95.0076 53.1201 94.9373 53.0908 94.8962C53.0791 94.8904 53.0674 94.8728 53.0557 94.8435C53.0439 94.8083 53.0322 94.7732 53.0205 94.738C53.0088 94.7029 52.9971 94.6677 52.9854 94.6326C52.9795 94.5974 52.9736 94.574 52.9678 94.5623L52.9502 94.5447C52.9443 94.5388 52.9355 94.5359 52.9238 94.5359C52.918 94.53 52.9121 94.5212 52.9062 94.5095C52.8828 94.4919 52.8623 94.4744 52.8447 94.4568C52.7275 94.3103 52.6338 94.158 52.5635 93.9998C52.499 93.8416 52.4111 93.6951 52.2998 93.5603C52.2236 93.4724 52.1445 93.3962 52.0625 93.3318C51.9805 93.2615 51.8955 93.197 51.8076 93.1384C51.7256 93.0798 51.6406 93.0212 51.5527 92.9626C51.4648 92.9041 51.3799 92.8367 51.2979 92.7605C51.251 92.7312 51.2217 92.696 51.21 92.655C51.2041 92.6082 51.2012 92.5613 51.2012 92.5144C51.2012 92.45 51.2158 92.4089 51.2451 92.3914C51.2744 92.3738 51.3213 92.365 51.3857 92.365H51.4209C51.4209 92.365 51.4326 92.3679 51.4561 92.3738C51.4854 92.3796 51.5146 92.3855 51.5439 92.3914C51.5791 92.3972 51.6084 92.4031 51.6318 92.4089C51.6611 92.4148 51.6816 92.4177 51.6934 92.4177H51.7373C52.1123 92.4177 52.4814 92.406 52.8447 92.3826C53.2139 92.3591 53.583 92.3474 53.9521 92.3474C54.0928 92.3474 54.1953 92.365 54.2598 92.4001C54.3301 92.4294 54.3652 92.5115 54.3652 92.6462C54.3652 92.7634 54.3418 92.8455 54.2949 92.8923C54.248 92.9333 54.1953 92.9656 54.1367 92.989C54.0781 93.0125 54.0254 93.0417 53.9785 93.0769C53.9316 93.1121 53.9082 93.1824 53.9082 93.2878C53.9082 93.3347 53.9258 93.3962 53.9609 93.4724C53.9961 93.5427 54.0254 93.5925 54.0488 93.6218C54.0664 93.6511 54.1045 93.7244 54.1631 93.8416C54.2275 93.9529 54.2949 94.0759 54.3652 94.2107C54.4414 94.3396 54.5117 94.4597 54.5762 94.571C54.6406 94.6824 54.6816 94.7527 54.6992 94.782C54.7402 94.8406 54.7754 94.8875 54.8047 94.9226C54.8398 94.9578 54.8809 94.9753 54.9277 94.9753C54.998 94.9753 55.0771 94.946 55.165 94.8875C55.2588 94.823 55.3789 94.7351 55.5254 94.6238C55.584 94.5769 55.6426 94.5037 55.7012 94.4041C55.7656 94.2986 55.8242 94.1931 55.877 94.0876C55.9297 93.9763 55.9766 93.8708 56.0176 93.7712C56.0645 93.6716 56.1025 93.6013 56.1318 93.5603ZM67.2764 100.539C67.2529 100.539 67.2178 100.542 67.1709 100.548C67.1299 100.548 67.0859 100.548 67.0391 100.548C66.998 100.548 66.96 100.551 66.9248 100.556C66.8896 100.556 66.8721 100.556 66.8721 100.556L66.6611 100.635L65.5801 100.574H63.2773C63.1895 100.545 63.1133 100.524 63.0488 100.512C62.9902 100.501 62.9199 100.495 62.8379 100.495C62.7734 100.495 62.7236 100.498 62.6885 100.504C62.6533 100.51 62.6064 100.527 62.5479 100.556C62.4893 100.556 62.3896 100.553 62.249 100.548C62.1143 100.542 61.9707 100.539 61.8184 100.539C61.666 100.539 61.5195 100.542 61.3789 100.548C61.2441 100.553 61.1533 100.556 61.1064 100.556C61.0889 100.556 61.0566 100.559 61.0098 100.565C60.9688 100.571 60.9219 100.574 60.8691 100.574C60.8223 100.58 60.7754 100.586 60.7285 100.592C60.6875 100.597 60.6611 100.6 60.6494 100.6C60.6318 100.606 60.6113 100.609 60.5879 100.609C60.5703 100.615 60.5527 100.618 60.5352 100.618C60.5234 100.618 60.5117 100.618 60.5 100.618C60.3418 100.618 60.2217 100.6 60.1396 100.565C60.0635 100.536 59.9961 100.442 59.9375 100.284C59.9141 100.284 59.9023 100.278 59.9023 100.266C59.8965 100.26 59.8965 100.252 59.9023 100.24C59.9023 100.193 59.917 100.143 59.9463 100.091C59.9814 100.032 60.0225 99.9792 60.0693 99.9324C60.1221 99.8855 60.1748 99.8474 60.2275 99.8181C60.2861 99.783 60.3418 99.7654 60.3945 99.7654H61.2295C61.2412 99.7654 61.2793 99.7332 61.3438 99.6687C61.4082 99.5984 61.4609 99.5457 61.502 99.5105C61.5137 99.4988 61.5254 99.4753 61.5371 99.4402C61.5547 99.3992 61.5635 99.3699 61.5635 99.3523C61.6338 99.0066 61.6748 98.6638 61.6865 98.324C61.6982 97.9841 61.7041 97.6296 61.7041 97.2605C61.7041 97.2312 61.7041 97.1667 61.7041 97.0671C61.71 96.9617 61.7129 96.8386 61.7129 96.698C61.7188 96.5574 61.7246 96.4109 61.7305 96.2585C61.7363 96.1003 61.7393 95.9509 61.7393 95.8103C61.7451 95.6697 61.748 95.5496 61.748 95.45C61.7539 95.3445 61.7568 95.2742 61.7568 95.239V94.7644C61.7568 94.2957 61.748 93.8328 61.7305 93.3757C61.7129 92.9187 61.7041 92.4646 61.7041 92.0134V91.9519C61.7041 91.9343 61.707 91.8904 61.7129 91.8201C61.7188 91.7439 61.7246 91.6648 61.7305 91.5828C61.7363 91.5007 61.7422 91.4246 61.748 91.3542C61.7539 91.2839 61.7568 91.24 61.7568 91.2224C61.7627 91.1697 61.7686 91.0789 61.7744 90.95C61.7803 90.8152 61.7861 90.6746 61.792 90.5281C61.7979 90.3757 61.8037 90.2351 61.8096 90.1062C61.8154 89.9773 61.8184 89.8865 61.8184 89.8337C61.7891 89.7458 61.7715 89.655 61.7656 89.5613C61.7598 89.4617 61.751 89.3679 61.7393 89.28C61.7275 89.1863 61.7041 89.0984 61.6689 89.0164C61.6338 88.9343 61.5781 88.864 61.502 88.8054C61.4668 88.7996 61.4053 88.7937 61.3174 88.7878C61.2295 88.782 61.1357 88.7791 61.0361 88.7791C60.9424 88.7732 60.8516 88.7673 60.7637 88.7615C60.6758 88.7556 60.6172 88.7498 60.5879 88.7439C60.4941 88.7322 60.3916 88.7175 60.2803 88.7C60.1689 88.6765 60.0664 88.6443 59.9727 88.6033C59.8789 88.5564 59.7998 88.4949 59.7354 88.4187C59.6768 88.3425 59.6475 88.2429 59.6475 88.1199L59.6826 88.1023C59.6943 88.0964 59.7031 88.0906 59.709 88.0847C59.7148 88.0789 59.7236 88.0759 59.7354 88.0759C59.876 87.9939 60.002 87.9412 60.1133 87.9177C60.2246 87.8884 60.3682 87.8738 60.5439 87.8738H60.5879C60.6055 87.8914 60.623 87.906 60.6406 87.9177C60.6758 87.9412 60.6992 87.9529 60.7109 87.9529C61.0039 87.9763 61.2969 87.9939 61.5898 88.0056C61.8828 88.0115 62.1787 88.0144 62.4775 88.0144C62.7236 88.0144 62.9639 88.0115 63.1982 88.0056C63.4326 87.9998 63.6641 87.9968 63.8926 87.9968H65.835C65.8584 87.9968 65.8965 87.9939 65.9492 87.988C66.002 87.9822 66.0576 87.9792 66.1162 87.9792C66.1807 87.9734 66.2422 87.9675 66.3008 87.9617C66.3594 87.9558 66.4033 87.9529 66.4326 87.9529H66.4941H66.5469C66.5645 87.9529 66.6055 87.9558 66.6699 87.9617C66.7344 87.9675 66.8047 87.9734 66.8809 87.9792C66.957 87.9792 67.0273 87.9822 67.0918 87.988C67.1621 87.9939 67.2061 87.9968 67.2236 87.9968H68.2695C68.3164 88.0027 68.3838 88.0085 68.4717 88.0144C68.5654 88.0203 68.6562 88.0261 68.7441 88.032C68.8379 88.0378 68.9199 88.0466 68.9902 88.0583C69.0605 88.0642 69.0986 88.0701 69.1045 88.0759C69.1104 88.0759 69.1338 88.0847 69.1748 88.1023C69.2158 88.1199 69.2598 88.1433 69.3066 88.1726C69.3594 88.196 69.4092 88.2224 69.4561 88.2517C69.5088 88.281 69.5498 88.3074 69.5791 88.3308C69.6377 88.366 69.6846 88.4509 69.7197 88.5857C69.7607 88.7146 69.793 88.8582 69.8164 89.0164C69.8398 89.1746 69.8574 89.3298 69.8691 89.4822C69.8867 89.6345 69.9014 89.7517 69.9131 89.8337C69.9131 89.863 69.916 89.9158 69.9219 89.9919C69.9336 90.0623 69.9424 90.1384 69.9482 90.2205C69.9541 90.3025 69.96 90.3816 69.9658 90.4578C69.9717 90.5339 69.9746 90.5867 69.9746 90.616V90.8533V91.0994C69.9453 91.1521 69.9072 91.1873 69.8604 91.2048C69.8135 91.2166 69.7637 91.2224 69.7109 91.2224H69.6494C69.585 91.1814 69.5381 91.1404 69.5088 91.0994C69.4795 91.0583 69.4561 91.0173 69.4385 90.9763C69.4209 90.9294 69.4033 90.8826 69.3857 90.8357C69.374 90.7888 69.3506 90.739 69.3154 90.6863C69.3154 90.6804 69.3037 90.6687 69.2803 90.6511C69.2627 90.6277 69.2422 90.6042 69.2188 90.5808C69.1953 90.5574 69.1719 90.5369 69.1484 90.5193C69.125 90.4958 69.1104 90.4812 69.1045 90.4753C69.0225 90.3582 68.9404 90.2263 68.8584 90.0798C68.7822 89.9275 68.6914 89.7869 68.5859 89.658C68.5801 89.6462 68.5596 89.6257 68.5244 89.5964C68.4951 89.5671 68.4746 89.5408 68.4629 89.5173C68.457 89.5056 68.4365 89.4968 68.4014 89.491C68.3662 89.4792 68.3428 89.4675 68.3311 89.4558C68.2607 89.4089 68.2051 89.3562 68.1641 89.2976C68.123 89.239 68.0791 89.1833 68.0322 89.1306C67.9912 89.072 67.9443 89.0164 67.8916 88.9636C67.8389 88.9109 67.7656 88.8669 67.6719 88.8318C67.625 88.8318 67.5342 88.8289 67.3994 88.823C67.2705 88.8113 67.1328 88.8025 66.9863 88.7966C66.8398 88.7849 66.6992 88.7761 66.5645 88.7703C66.4355 88.7585 66.3447 88.7498 66.292 88.7439H65.835C65.8291 88.7439 65.8027 88.741 65.7559 88.7351C65.7148 88.7234 65.668 88.7146 65.6152 88.7087C65.5625 88.697 65.5127 88.6882 65.4658 88.6824C65.4189 88.6707 65.3896 88.6648 65.3779 88.6648H65.2461H65.123C65.0996 88.6648 65.0469 88.6707 64.9648 88.6824C64.8887 88.6882 64.8037 88.697 64.71 88.7087C64.6221 88.7146 64.5371 88.7234 64.4551 88.7351C64.3789 88.741 64.332 88.7439 64.3145 88.7439H63.7959C63.7725 88.7439 63.7461 88.7527 63.7168 88.7703C63.6875 88.782 63.6729 88.7937 63.6729 88.8054V89.8953C63.667 90.0828 63.6406 90.2615 63.5938 90.4314C63.5469 90.6013 63.5234 90.7742 63.5234 90.95C63.5234 91.2136 63.5352 91.4802 63.5586 91.7498C63.5879 92.0134 63.6025 92.283 63.6025 92.5583C63.6025 92.7458 63.5879 92.9363 63.5586 93.1296C63.5352 93.323 63.5234 93.5222 63.5234 93.7273V93.7888C63.541 93.8064 63.5645 93.8328 63.5938 93.8679C63.623 93.8972 63.6494 93.9119 63.6729 93.9119H63.8926H64.1211C64.1328 93.9119 64.1592 93.9089 64.2002 93.9031C64.2412 93.8914 64.2852 93.8826 64.332 93.8767C64.3789 93.865 64.4199 93.8562 64.4551 93.8503C64.4961 93.8386 64.5195 93.8328 64.5254 93.8328H65.3076C65.3486 93.8328 65.4219 93.8298 65.5273 93.824C65.6387 93.8181 65.7529 93.8152 65.8701 93.8152C65.9932 93.8093 66.1074 93.8035 66.2129 93.7976C66.3184 93.7917 66.3916 93.7888 66.4326 93.7888C66.5205 93.7126 66.585 93.6013 66.626 93.4548C66.667 93.3025 66.708 93.1765 66.749 93.0769C66.7549 93.0593 66.7607 93.0183 66.7666 92.9539C66.7783 92.8835 66.79 92.8103 66.8018 92.7341C66.8135 92.658 66.8252 92.5876 66.8369 92.5232C66.8486 92.4529 66.8604 92.4089 66.8721 92.3914C66.8721 92.3855 66.8779 92.3708 66.8896 92.3474C66.9072 92.3181 66.9248 92.2917 66.9424 92.2683C66.96 92.239 66.9746 92.2126 66.9863 92.1892C67.0039 92.1658 67.0156 92.1511 67.0215 92.1453C67.0449 92.0691 67.0596 91.9871 67.0654 91.8992C67.0713 91.8113 67.0859 91.7322 67.1094 91.6619C67.1328 91.5857 67.1709 91.5242 67.2236 91.4773C67.2764 91.4304 67.3613 91.407 67.4785 91.407C67.6074 91.407 67.6924 91.4363 67.7334 91.4949C67.7744 91.5535 67.7949 91.6501 67.7949 91.7849C67.7949 91.8318 67.792 91.8669 67.7861 91.8904C67.7803 91.908 67.7686 91.949 67.751 92.0134C67.751 92.0193 67.748 92.0339 67.7422 92.0574C67.7363 92.0808 67.7334 92.1072 67.7334 92.1365C67.7334 92.1833 67.7363 92.2273 67.7422 92.2683C67.748 92.3035 67.751 92.3298 67.751 92.3474C67.7451 92.3826 67.7393 92.4558 67.7334 92.5671C67.7275 92.6785 67.7188 92.8074 67.707 92.9539C67.6953 93.1003 67.6836 93.2585 67.6719 93.4285C67.6602 93.5925 67.6484 93.7507 67.6367 93.9031C67.625 94.0496 67.6133 94.1785 67.6016 94.2898C67.5957 94.4011 67.5898 94.4773 67.584 94.5183C67.584 94.53 67.5869 94.5857 67.5928 94.6853C67.5986 94.7791 67.6016 94.8757 67.6016 94.9753C67.6016 95.0222 67.5957 95.075 67.584 95.1335C67.5723 95.1863 67.5635 95.2214 67.5576 95.239C67.5576 95.239 67.5518 95.2537 67.54 95.283C67.5342 95.3123 67.5254 95.3474 67.5137 95.3884C67.5078 95.4236 67.499 95.4587 67.4873 95.4939C67.4814 95.5232 67.4785 95.5437 67.4785 95.5554C67.4785 95.573 67.4814 95.614 67.4873 95.6785C67.4932 95.7429 67.499 95.8132 67.5049 95.8894C67.5166 95.9597 67.5254 96.0271 67.5312 96.0916C67.5371 96.1501 67.54 96.1882 67.54 96.2058C67.54 96.2292 67.54 96.2644 67.54 96.3113C67.5459 96.3523 67.5488 96.3962 67.5488 96.4431C67.5488 96.4841 67.5488 96.5251 67.5488 96.5662C67.5547 96.6072 67.5576 96.6394 67.5576 96.6628C67.5576 96.7625 67.5459 96.8533 67.5225 96.9353C67.5049 97.0173 67.4639 97.1082 67.3994 97.2078C67.3936 97.2371 67.3643 97.2693 67.3115 97.3044C67.2646 97.3337 67.2354 97.3484 67.2236 97.3484C67.2119 97.3484 67.1797 97.3337 67.127 97.3044C67.0742 97.2693 67.0391 97.2371 67.0215 97.2078C66.9219 97.1257 66.8516 97.0115 66.8105 96.865C66.7754 96.7185 66.752 96.5603 66.7402 96.3904C66.7285 96.2146 66.7227 96.0359 66.7227 95.8542C66.7227 95.6726 66.7109 95.5056 66.6875 95.3533C66.6699 95.1951 66.6318 95.0632 66.5732 94.9578C66.5146 94.8523 66.4209 94.7878 66.292 94.7644C66.2451 94.7761 66.1719 94.782 66.0723 94.782C65.9727 94.782 65.8643 94.782 65.7471 94.782C65.624 94.782 65.5068 94.782 65.3955 94.782C65.29 94.782 65.2197 94.7761 65.1846 94.7644C65.1553 94.7644 65.1084 94.7615 65.0439 94.7556C64.9795 94.7498 64.9121 94.7468 64.8418 94.7468C64.7773 94.741 64.7129 94.7351 64.6484 94.7292C64.5898 94.7234 64.5488 94.7205 64.5254 94.7205C64.5195 94.7029 64.4961 94.6824 64.4551 94.6589C64.4141 94.6355 64.3877 94.6238 64.376 94.6238H64.2881C64.1357 94.6238 63.9893 94.6619 63.8486 94.738C63.7139 94.8083 63.6318 94.9226 63.6025 95.0808C63.5967 95.1218 63.582 95.2039 63.5586 95.3269C63.541 95.4441 63.5205 95.573 63.4971 95.7136C63.4795 95.8542 63.459 95.9919 63.4355 96.1267C63.418 96.2556 63.4062 96.3523 63.4004 96.4167V96.4695V96.531C63.4004 96.5779 63.4033 96.6541 63.4092 96.7595C63.415 96.865 63.4209 96.9792 63.4268 97.1023C63.4326 97.2195 63.4385 97.3337 63.4443 97.4451C63.4561 97.5505 63.4619 97.6238 63.4619 97.6648C63.4912 97.7117 63.5088 97.7468 63.5146 97.7703C63.5205 97.7937 63.5234 97.8201 63.5234 97.8494C63.5234 98.0779 63.5117 98.3005 63.4883 98.5173C63.4648 98.7341 63.4531 98.9626 63.4531 99.2029C63.4531 99.2263 63.4531 99.2761 63.4531 99.3523C63.459 99.4285 63.4619 99.4812 63.4619 99.5105C63.4678 99.5222 63.4824 99.5427 63.5059 99.572C63.5293 99.5955 63.5527 99.6218 63.5762 99.6511C63.6055 99.6746 63.6348 99.698 63.6641 99.7214C63.6934 99.7449 63.7139 99.7595 63.7256 99.7654C63.7314 99.7771 63.7578 99.7859 63.8047 99.7917C63.8574 99.7976 63.916 99.8035 63.9805 99.8093C64.0449 99.8093 64.1064 99.8152 64.165 99.8269C64.2295 99.8328 64.2793 99.8386 64.3145 99.8445C64.3848 99.8445 64.5049 99.8474 64.6748 99.8533C64.8506 99.8591 65.0352 99.865 65.2285 99.8708C65.4277 99.8767 65.6123 99.8826 65.7822 99.8884C65.958 99.8884 66.0811 99.8884 66.1514 99.8884C66.2217 99.9177 66.292 99.9382 66.3623 99.95C66.4385 99.9617 66.5117 99.9675 66.582 99.9675H66.8281H67.2236C67.2295 99.9675 67.25 99.9646 67.2852 99.9587C67.3203 99.947 67.3584 99.9382 67.3994 99.9324C67.4463 99.9207 67.4873 99.9119 67.5225 99.906C67.5576 99.8943 67.5781 99.8884 67.584 99.8884H69.2539C69.3184 99.8708 69.3799 99.8386 69.4385 99.7917C69.4971 99.739 69.5527 99.6833 69.6055 99.6248C69.6582 99.5603 69.7051 99.4958 69.7461 99.4314C69.7871 99.3611 69.8223 99.2996 69.8516 99.2468C69.8691 99.2292 69.8926 99.1882 69.9219 99.1238C69.957 99.0593 69.9893 98.9919 70.0186 98.9216C70.0537 98.8455 70.0859 98.7751 70.1152 98.7107C70.1445 98.6462 70.1621 98.6082 70.168 98.5964C70.1797 98.5789 70.2061 98.5437 70.2471 98.491C70.2881 98.4382 70.3086 98.406 70.3086 98.3943C70.3145 98.3826 70.3262 98.3503 70.3438 98.2976C70.3613 98.2449 70.3701 98.2126 70.3701 98.2009C70.376 98.1951 70.3906 98.1775 70.4141 98.1482C70.4434 98.1189 70.4727 98.0896 70.502 98.0603C70.5312 98.031 70.5576 98.0017 70.5811 97.9724C70.6045 97.9431 70.6191 97.9226 70.625 97.9109C70.6309 97.905 70.6426 97.8875 70.6602 97.8582C70.6836 97.823 70.7041 97.7849 70.7217 97.7439C70.7451 97.697 70.7627 97.656 70.7744 97.6208C70.792 97.5798 70.8037 97.5535 70.8096 97.5417C70.8213 97.5183 70.8535 97.4832 70.9062 97.4363C70.9648 97.3894 70.9971 97.3601 71.0029 97.3484C71.0146 97.3367 71.0293 97.3279 71.0469 97.322C71.0645 97.3103 71.0791 97.2986 71.0908 97.2869C71.1084 97.2751 71.126 97.2664 71.1436 97.2605C71.167 97.2722 71.2021 97.3015 71.249 97.3484C71.2959 97.3953 71.3311 97.4304 71.3545 97.4539V97.4978C71.3545 97.5681 71.3428 97.6355 71.3193 97.7C71.3018 97.7644 71.293 97.8289 71.293 97.8933C71.293 97.9753 71.3018 98.0486 71.3193 98.113C71.3428 98.1716 71.3545 98.2419 71.3545 98.324V98.3943C71.3545 98.4119 71.3428 98.4441 71.3193 98.491C71.3018 98.5378 71.293 98.573 71.293 98.5964V99.6248C71.2871 99.6951 71.2783 99.7859 71.2666 99.8972C71.2549 100.003 71.2314 100.105 71.1963 100.205C71.1611 100.299 71.1113 100.381 71.0469 100.451C70.9824 100.521 70.8975 100.556 70.792 100.556H70.748C70.7305 100.551 70.7012 100.545 70.6602 100.539C70.6191 100.533 70.5781 100.527 70.5371 100.521C70.4961 100.515 70.458 100.51 70.4229 100.504C70.3936 100.498 70.376 100.495 70.3701 100.495L70.3174 100.46C70.2822 100.436 70.2646 100.422 70.2646 100.416H70.2119H70.168C69.9629 100.486 69.7695 100.521 69.5879 100.521C69.4062 100.521 69.2158 100.533 69.0166 100.556C68.999 100.556 68.9668 100.559 68.9199 100.565C68.873 100.571 68.8203 100.577 68.7617 100.583C68.709 100.594 68.6592 100.606 68.6123 100.618C68.5654 100.63 68.5361 100.638 68.5244 100.644H68.4805C68.375 100.644 68.2754 100.63 68.1816 100.6C68.0938 100.571 67.9912 100.556 67.874 100.556C67.8623 100.556 67.8301 100.556 67.7773 100.556C67.7305 100.551 67.6748 100.548 67.6104 100.548C67.5518 100.548 67.4902 100.548 67.4258 100.548C67.3672 100.542 67.3174 100.539 67.2764 100.539Z" fill="#151618"/>
<defs>
<filter id="filter0_d_1_212" x="0.336304" y="-0.000244141" width="76.4081" height="93.0354" filterUnits="userSpaceOnUse" color-interpolation-filters="sRGB">
<feFlood flood-opacity="0" result="BackgroundImageFix"/>
<feColorMatrix in="SourceAlpha" type="matrix" values="0 0 0 0 0 0 0 0 0 0 0 0 0 0 0 0 0 0 127 0" result="hardAlpha"/>
<feOffset dy="4"/>
<feGaussianBlur stdDeviation="2"/>
<feComposite in2="hardAlpha" operator="out"/>
<feColorMatrix type="matrix" values="0 0 0 0 0 0 0 0 0 0 0 0 0 0 0 0 0 0 0.25 0"/>
<feBlend mode="normal" in2="BackgroundImageFix" result="effect1_dropShadow_1_212"/>
<feBlend mode="normal" in="SourceGraphic" in2="effect1_dropShadow_1_212" result="shape"/>
</filter>
</defs>
</svg>
